<?xml version="1.0" encoding="UTF-8"?>
<svg id="Layer_2" data-name="Layer 2" xmlns="http://www.w3.org/2000/svg" viewBox="0 0 1611.97 634.36">
  <defs>
    <style>
      .cls-1, .cls-2, .cls-3, .cls-4, .cls-5 {
        fill: none;
        stroke-miterlimit: 10;
      }

      .cls-1, .cls-2, .cls-3, .cls-5 {
        stroke-width: 3px;
      }

      .cls-1, .cls-3 {
        stroke-dasharray: 0 0 4.01 4.01;
      }

      .cls-1, .cls-5 {
        stroke: #d50f25;
      }

      .cls-6, .cls-7, .cls-8, .cls-9 {
        stroke-width: 0px;
      }

      .cls-7 {
        fill: #d50f25;
      }

      .cls-8 {
        fill: #fff;
      }

      .cls-2, .cls-3 {
        stroke: #0899de;
      }

      .cls-9 {
        fill: #0899de;
      }

      .cls-4 {
        stroke: #231f20;
        stroke-width: 1.62px;
      }
    </style>
  </defs>
  <g id="Layer_1-2" data-name="Layer 1">
    <g>
      <path class="cls-4" d="m526.29,336.96c0-72.55,58.82-131.37,131.37-131.37s131.37,58.82,131.37,131.37"/>
      <path class="cls-4" d="m789.04,336.96c0,72.55,58.82,131.37,131.37,131.37s131.37-58.82,131.37-131.37"/>
      <path class="cls-4" d="m1051.78,336.96c0-72.55,58.82-131.37,131.37-131.37s131.37,58.82,131.37,131.37"/>
      <path class="cls-4" d="m1314.52,336.96c0,72.55,58.82,131.37,131.37,131.37s131.37-58.82,131.37-131.37"/>
      <path class="cls-4" d="m.81,336.96c0-72.55,58.82-131.37,131.37-131.37s131.37,58.82,131.37,131.37"/>
      <path class="cls-4" d="m263.55,336.96c0,72.55,58.82,131.37,131.37,131.37s131.37-58.82,131.37-131.37"/>
      <circle class="cls-7" cx="132.18" cy="335.2" r="81.48"/>
      <circle class="cls-7" cx="132.18" cy="202.87" r="9.84"/>
      <circle class="cls-7" cx="657.67" cy="202.87" r="9.84"/>
      <circle class="cls-7" cx="1183.15" cy="202.87" r="9.84"/>
      <circle class="cls-9" cx="394.92" cy="467.53" r="9.84"/>
      <circle class="cls-9" cx="920.41" cy="467.53" r="9.84"/>
      <circle class="cls-9" cx="1445.89" cy="467.53" r="9.84"/>
      <circle class="cls-7" cx="657.67" cy="335.2" r="81.48"/>
      <circle class="cls-9" cx="920.41" cy="335.2" r="81.48"/>
      <circle class="cls-7" cx="1183.15" cy="335.2" r="81.48"/>
      <circle class="cls-9" cx="1445.89" cy="335.2" r="81.48"/>
      <circle class="cls-9" cx="394.92" cy="335.2" r="81.48"/>
      <g>
        <line class="cls-5" x1="132.18" y1="88.17" x2="132.18" y2="90.17"/>
        <line class="cls-1" x1="132.18" y1="94.18" x2="132.18" y2="188.47"/>
        <line class="cls-5" x1="132.18" y1="190.48" x2="132.18" y2="192.48"/>
        <polygon class="cls-7" points="121.14 97.12 123.11 98.96 132.18 89.21 141.24 98.96 143.22 97.12 132.18 85.24 121.14 97.12"/>
      </g>
      <g>
        <line class="cls-5" x1="657.67" y1="88.17" x2="657.67" y2="90.17"/>
        <line class="cls-1" x1="657.67" y1="94.18" x2="657.67" y2="188.47"/>
        <line class="cls-5" x1="657.67" y1="190.48" x2="657.67" y2="192.48"/>
        <polygon class="cls-7" points="646.62 97.12 648.6 98.96 657.66 89.21 666.73 98.96 668.71 97.12 657.66 85.24 646.62 97.12"/>
      </g>
      <g>
        <line class="cls-5" x1="1183.15" y1="88.17" x2="1183.15" y2="90.17"/>
        <line class="cls-1" x1="1183.15" y1="94.18" x2="1183.15" y2="188.47"/>
        <line class="cls-5" x1="1183.15" y1="190.48" x2="1183.15" y2="192.48"/>
        <polygon class="cls-7" points="1172.11 97.12 1174.09 98.96 1183.15 89.21 1192.21 98.96 1194.19 97.12 1183.15 85.24 1172.11 97.12"/>
      </g>
      <g>
        <line class="cls-2" x1="394.92" y1="582.23" x2="394.92" y2="580.23"/>
        <line class="cls-3" x1="394.92" y1="576.22" x2="394.92" y2="481.93"/>
        <line class="cls-2" x1="394.92" y1="479.92" x2="394.92" y2="477.92"/>
        <polygon class="cls-9" points="405.96 573.28 403.99 571.44 394.92 581.19 385.86 571.44 383.88 573.28 394.92 585.16 405.96 573.28"/>
      </g>
      <g>
        <line class="cls-2" x1="920.41" y1="582.23" x2="920.41" y2="580.23"/>
        <line class="cls-3" x1="920.41" y1="576.22" x2="920.41" y2="481.93"/>
        <line class="cls-2" x1="920.41" y1="479.92" x2="920.41" y2="477.92"/>
        <polygon class="cls-9" points="931.45 573.28 929.47 571.44 920.41 581.19 911.35 571.44 909.37 573.28 920.41 585.16 931.45 573.28"/>
      </g>
      <g>
        <line class="cls-2" x1="1445.89" y1="582.23" x2="1445.89" y2="580.23"/>
        <line class="cls-3" x1="1445.89" y1="576.22" x2="1445.89" y2="481.93"/>
        <line class="cls-2" x1="1445.89" y1="479.92" x2="1445.89" y2="477.92"/>
        <polygon class="cls-9" points="1456.94 573.28 1454.96 571.44 1445.9 581.19 1436.83 571.44 1434.85 573.28 1445.9 585.16 1456.94 573.28"/>
      </g>
      <g>
        <path class="cls-8" d="m124.59,348.15c-2.2,0-4.09-.54-5.65-1.61s-2.77-2.61-3.6-4.61-1.26-4.41-1.26-7.23.42-5.24,1.26-7.25,2.04-3.55,3.6-4.62,3.45-1.61,5.65-1.61,4.09.54,5.66,1.62,2.77,2.62,3.6,4.62,1.25,4.42,1.25,7.24-.42,5.24-1.25,7.24-2.03,3.54-3.59,4.61-3.45,1.6-5.67,1.6Zm0-4.43c1.09,0,2.02-.35,2.78-1.06s1.34-1.73,1.74-3.08.6-2.97.6-4.88-.2-3.56-.6-4.9-.98-2.38-1.74-3.09-1.69-1.07-2.78-1.07-2.02.36-2.78,1.07-1.34,1.75-1.75,3.09-.61,2.98-.61,4.9.2,3.54.6,4.88.98,2.37,1.75,3.08,1.7,1.06,2.79,1.06Z"/>
        <path class="cls-8" d="m149.55,321.59v26.19h-5.33v-21.41h-.14l-6.03,4.17v-4.87l5.94-4.08h5.55Z"/>
      </g>
      <g>
        <path class="cls-6" d="m6.16,1.18v26.19H.78V1.18h5.38Zm3.85,26.19H3.23v-4.61h6.52c1.7,0,3.12-.3,4.26-.91s2-1.54,2.58-2.8.86-2.86.86-4.79-.29-3.51-.86-4.76-1.43-2.19-2.57-2.79-2.55-.91-4.24-.91H3.1V1.18h7c2.64,0,4.9.52,6.79,1.57s3.35,2.55,4.38,4.51,1.54,4.29,1.54,7-.51,5.06-1.54,7.01-2.49,3.46-4.4,4.52-4.2,1.58-6.86,1.58Z"/>
        <path class="cls-6" d="m35.25,27.76c-1.96,0-3.65-.42-5.09-1.26s-2.54-2.01-3.32-3.52-1.17-3.25-1.17-5.25.39-3.78,1.17-5.28,1.89-2.68,3.32-3.52,3.13-1.26,5.09-1.26,3.64.42,5.07,1.26,2.54,2.01,3.32,3.52,1.17,3.27,1.17,5.28-.39,3.74-1.17,5.25-1.89,2.68-3.32,3.52-3.13,1.26-5.07,1.26Zm0-4.15c.91,0,1.68-.25,2.31-.76s1.1-1.2,1.43-2.08.49-1.9.49-3.05-.16-2.18-.49-3.06-.81-1.57-1.43-2.07-1.4-.76-2.31-.76-1.69.25-2.32.76-1.11,1.2-1.43,2.07-.48,1.9-.48,3.06.16,2.17.48,3.05.8,1.58,1.42,2.08,1.4.76,2.33.76Z"/>
        <path class="cls-6" d="m57.03,27.76c-1.95,0-3.63-.42-5.06-1.26s-2.53-2.01-3.31-3.52-1.17-3.25-1.17-5.25.39-3.76,1.17-5.27,1.88-2.69,3.31-3.52,3.12-1.26,5.06-1.26c1.18,0,2.27.16,3.26.47s1.87.76,2.63,1.34,1.39,1.29,1.87,2.12.81,1.75.98,2.79l-4.92.7c-.11-.5-.26-.96-.47-1.35s-.47-.74-.79-1.03-.68-.51-1.1-.66-.88-.23-1.4-.23c-.93,0-1.7.25-2.33.74s-1.1,1.18-1.43,2.07-.49,1.91-.49,3.08.16,2.18.49,3.07.81,1.58,1.43,2.07,1.4.75,2.33.75c.52,0,.98-.08,1.4-.24s.79-.38,1.11-.68.59-.65.81-1.06.37-.89.47-1.42l4.92.72c-.15,1.04-.47,1.98-.96,2.81s-1.11,1.55-1.87,2.15-1.64,1.06-2.65,1.38-2.09.47-3.28.47Z"/>
        <path class="cls-6" d="m75.93,27.65c-1.35,0-2.53-.29-3.53-.88s-1.79-1.43-2.34-2.54-.83-2.43-.83-3.96V7.96h5.24v11.37c0,1.23.31,2.19.94,2.87s1.49,1.02,2.59,1.02c.74,0,1.39-.16,1.96-.47s1.01-.78,1.34-1.4.48-1.36.48-2.24V7.96h5.26v19.41h-5.01l-.07-4.89h.44c-.54,1.64-1.34,2.91-2.4,3.81s-2.42,1.35-4.07,1.35Z"/>
        <path class="cls-6" d="m91.35,27.37V7.96h4.9l.21,4.73h-.37c.3-1.17.75-2.13,1.34-2.87s1.29-1.29,2.08-1.64,1.63-.53,2.51-.53c1.41,0,2.56.44,3.47,1.32s1.55,2.2,1.92,3.97h-.6c.27-1.2.73-2.18,1.38-2.96s1.42-1.36,2.32-1.75,1.85-.58,2.86-.58c1.2,0,2.26.26,3.21.78s1.69,1.28,2.23,2.27.82,2.2.82,3.63v13.04h-5.26v-12.04c0-1.11-.3-1.94-.9-2.49s-1.34-.82-2.21-.82c-.67,0-1.25.14-1.73.43s-.86.69-1.12,1.2-.4,1.12-.4,1.83v11.88h-5.08v-12.2c0-.96-.28-1.73-.85-2.29s-1.3-.85-2.21-.85c-.62,0-1.18.14-1.68.42s-.89.69-1.19,1.24-.44,1.22-.44,2.01v11.67h-5.24Z"/>
        <path class="cls-6" d="m132.74,27.76c-1.98,0-3.69-.41-5.12-1.23s-2.54-1.98-3.32-3.48-1.17-3.26-1.17-5.29.39-3.76,1.16-5.26,1.86-2.68,3.27-3.53,3.05-1.27,4.94-1.27c1.3,0,2.51.21,3.62.63s2.09,1.05,2.93,1.87,1.49,1.86,1.95,3.09.69,2.66.69,4.28v1.46h-16.47v-3.3h13.92l-2.44.86c0-1.01-.16-1.88-.47-2.62s-.78-1.31-1.4-1.71-1.37-.61-2.28-.61-1.67.21-2.3.62-1.12.97-1.45,1.69-.5,1.54-.5,2.46v2.32c0,1.09.19,2.02.56,2.78s.91,1.34,1.59,1.73,1.49.59,2.4.59c.62,0,1.19-.09,1.7-.27s.94-.45,1.3-.79.63-.77.82-1.27l4.76.69c-.3,1.12-.85,2.11-1.64,2.94s-1.78,1.49-2.97,1.95-2.55.69-4.07.69Z"/>
        <path class="cls-6" d="m150.36,16.22v11.14h-5.24V7.96h4.99l.07,4.89h-.44c.53-1.64,1.32-2.91,2.38-3.81s2.42-1.35,4.09-1.35c1.35,0,2.53.29,3.53.88s1.79,1.43,2.34,2.53.83,2.43.83,3.97v12.3h-5.24v-11.37c0-1.23-.31-2.19-.93-2.87s-1.49-1.03-2.6-1.03c-.74,0-1.39.16-1.96.48s-1.01.79-1.34,1.4-.48,1.36-.48,2.25Z"/>
        <path class="cls-6" d="m177.18,7.96v4.03h-11.78v-4.03h11.78Zm-8.95-4.76h5.24v18.42c0,.62.14,1.08.41,1.36s.74.43,1.38.43c.23,0,.54-.02.91-.06s.65-.08.85-.11l.58,3.99c-.53.13-1.08.22-1.65.27s-1.13.08-1.67.08c-1.99,0-3.5-.46-4.52-1.38s-1.53-2.26-1.53-4.03V3.2Z"/>
        <path class="cls-6" d="m186.16,27.74c-1.24,0-2.36-.22-3.34-.65s-1.76-1.08-2.32-1.94-.84-1.93-.84-3.21c0-1.09.2-2,.6-2.72s.94-1.31,1.63-1.76,1.48-.78,2.36-1.01,1.81-.39,2.79-.48c1.14-.12,2.05-.23,2.74-.33s1.2-.25,1.51-.47.47-.53.47-.95v-.09c0-.54-.12-1-.36-1.38s-.59-.67-1.05-.88-1.01-.31-1.67-.31-1.25.1-1.75.31-.9.48-1.21.83-.53.74-.66,1.17l-4.83-.62c.27-1.17.79-2.17,1.55-3.01s1.73-1.47,2.92-1.91,2.53-.66,4.04-.66c1.1,0,2.15.13,3.14.39s1.87.66,2.65,1.2,1.38,1.22,1.82,2.05.66,1.81.66,2.96v13.1h-5.01v-2.71h-.16c-.32.61-.74,1.15-1.26,1.61s-1.15.82-1.87,1.08-1.58.39-2.55.39Zm1.48-3.67c.83,0,1.56-.16,2.18-.49s1.11-.77,1.46-1.32.53-1.17.53-1.86v-2.06c-.15.09-.38.19-.68.28s-.64.18-1.01.25-.75.13-1.13.19-.73.11-1.05.16c-.63.09-1.2.24-1.69.45s-.87.48-1.14.83-.4.78-.4,1.29.13.91.38,1.25.6.6,1.04.77.95.26,1.52.26Z"/>
        <path class="cls-6" d="m211.26,7.96v4.03h-11.78v-4.03h11.78Zm-8.95-4.76h5.24v18.42c0,.62.14,1.08.41,1.36s.74.43,1.38.43c.23,0,.54-.02.91-.06s.65-.08.85-.11l.58,3.99c-.53.13-1.08.22-1.65.27s-1.13.08-1.67.08c-1.99,0-3.5-.46-4.52-1.38s-1.53-2.26-1.53-4.03V3.2Z"/>
        <path class="cls-6" d="m217.13,5.45c-.81,0-1.5-.26-2.07-.79s-.85-1.17-.85-1.93.28-1.41.85-1.93,1.25-.79,2.05-.79,1.51.26,2.07.79.84,1.17.84,1.93-.28,1.41-.84,1.93-1.25.79-2.06.79Zm-2.62,21.92V7.96h5.24v19.41h-5.24Z"/>
        <path class="cls-6" d="m232.83,27.76c-1.96,0-3.65-.42-5.09-1.26s-2.54-2.01-3.32-3.52-1.17-3.25-1.17-5.25.39-3.78,1.17-5.28,1.89-2.68,3.32-3.52,3.13-1.26,5.09-1.26,3.64.42,5.07,1.26,2.54,2.01,3.32,3.52,1.17,3.27,1.17,5.28-.39,3.74-1.17,5.25-1.89,2.68-3.32,3.52-3.13,1.26-5.07,1.26Zm0-4.15c.91,0,1.68-.25,2.31-.76s1.1-1.2,1.43-2.08.49-1.9.49-3.05-.16-2.18-.49-3.06-.81-1.57-1.43-2.07-1.4-.76-2.31-.76-1.69.25-2.32.76-1.11,1.2-1.43,2.07-.48,1.9-.48,3.06.16,2.17.48,3.05.8,1.58,1.42,2.08,1.4.76,2.33.76Z"/>
        <path class="cls-6" d="m251.13,16.22v11.14h-5.24V7.96h4.99l.07,4.89h-.44c.53-1.64,1.32-2.91,2.38-3.81s2.42-1.35,4.09-1.35c1.35,0,2.53.29,3.53.88s1.79,1.43,2.34,2.53.83,2.43.83,3.97v12.3h-5.24v-11.37c0-1.23-.31-2.19-.93-2.87s-1.49-1.03-2.6-1.03c-.74,0-1.39.16-1.96.48s-1.01.79-1.34,1.4-.48,1.36-.48,2.25Z"/>
        <path class="cls-6" d="m67.59,70.57v-26.19h10.28c1.98,0,3.67.35,5.08,1.05s2.48,1.69,3.23,2.97,1.12,2.78,1.12,4.52-.38,3.21-1.14,4.46-1.86,2.21-3.29,2.88-3.15,1-5.17,1h-6.91v-4.34h6.26c1.05,0,1.93-.16,2.64-.47s1.23-.76,1.59-1.36.54-1.32.54-2.18-.18-1.62-.54-2.22-.89-1.07-1.59-1.39-1.59-.48-2.65-.48h-4.06v21.74h-5.38Zm14.64,0l-6.29-11.9h5.8l6.42,11.9h-5.92Z"/>
        <path class="cls-6" d="m99.33,70.96c-1.98,0-3.69-.41-5.12-1.23s-2.54-1.98-3.32-3.48-1.17-3.26-1.17-5.29.39-3.76,1.16-5.26,1.86-2.68,3.27-3.53,3.05-1.27,4.94-1.27c1.3,0,2.51.21,3.62.63s2.09,1.05,2.93,1.87,1.49,1.86,1.95,3.09.69,2.66.69,4.28v1.46h-16.47v-3.3h13.92l-2.44.86c0-1.01-.16-1.88-.47-2.62s-.78-1.31-1.4-1.71-1.37-.61-2.28-.61-1.67.21-2.3.62-1.12.97-1.45,1.69-.5,1.54-.5,2.46v2.32c0,1.09.19,2.02.56,2.78s.91,1.34,1.59,1.73,1.49.59,2.4.59c.62,0,1.19-.09,1.7-.27s.94-.45,1.3-.79.63-.77.82-1.27l4.76.69c-.3,1.12-.85,2.11-1.64,2.94s-1.78,1.49-2.97,1.95-2.55.69-4.07.69Z"/>
        <path class="cls-6" d="m116.53,70.57l-7.15-19.41h5.55l3.25,9.97c.4,1.23.75,2.47,1.05,3.73s.61,2.55.91,3.88h-1.14c.3-1.34.61-2.63.91-3.88s.64-2.49,1.03-3.74l3.2-9.97h5.5l-7.15,19.41h-5.96Z"/>
        <path class="cls-6" d="m134.9,48.65c-.81,0-1.5-.26-2.07-.79s-.85-1.17-.85-1.93.28-1.41.85-1.93,1.25-.79,2.05-.79,1.51.26,2.07.79.84,1.17.84,1.93-.28,1.41-.84,1.93-1.25.79-2.06.79Zm-2.62,21.92v-19.41h5.24v19.41h-5.24Z"/>
        <path class="cls-6" d="m150.63,70.96c-1.98,0-3.69-.41-5.12-1.23s-2.54-1.98-3.32-3.48-1.17-3.26-1.17-5.29.39-3.76,1.16-5.26,1.86-2.68,3.27-3.53,3.05-1.27,4.94-1.27c1.3,0,2.51.21,3.62.63s2.09,1.05,2.93,1.87,1.49,1.86,1.95,3.09.69,2.66.69,4.28v1.46h-16.47v-3.3h13.92l-2.44.86c0-1.01-.16-1.88-.47-2.62s-.78-1.31-1.4-1.71-1.37-.61-2.28-.61-1.67.21-2.3.62-1.12.97-1.45,1.69-.5,1.54-.5,2.46v2.32c0,1.09.19,2.02.56,2.78s.91,1.34,1.59,1.73,1.49.59,2.4.59c.62,0,1.19-.09,1.7-.27s.94-.45,1.3-.79.63-.77.82-1.27l4.76.69c-.3,1.12-.85,2.11-1.64,2.94s-1.78,1.49-2.97,1.95-2.55.69-4.07.69Z"/>
        <path class="cls-6" d="m166.61,70.57l-5.78-19.41h5.5l1.71,7.08c.3,1.31.62,2.72.96,4.23s.65,3.13.94,4.88h-.63c.32-1.72.65-3.34,1.01-4.85s.7-2.93,1.03-4.25l1.79-7.08h4.82l1.74,7.08c.32,1.32.65,2.74,1.01,4.25s.69,3.13,1.01,4.86h-.62c.29-1.72.6-3.34.91-4.84s.63-2.93.93-4.26l1.71-7.08h5.59l-5.82,19.41h-5.36l-2.16-7.54c-.21-.74-.42-1.55-.63-2.43s-.42-1.78-.62-2.7-.4-1.78-.6-2.58h.93c-.2.81-.4,1.67-.6,2.58s-.4,1.81-.61,2.7-.42,1.7-.64,2.43l-2.18,7.54h-5.34Z"/>
      </g>
      <g>
        <path class="cls-6" d="m515.91,44.38v26.19h-5.38v-26.19h5.38Zm3.85,26.19h-6.79v-4.61h6.52c1.7,0,3.12-.3,4.26-.91s2-1.54,2.58-2.8.86-2.86.86-4.79-.29-3.51-.86-4.76-1.43-2.19-2.57-2.79-2.55-.91-4.24-.91h-6.68v-4.61h7c2.64,0,4.9.52,6.79,1.57s3.35,2.55,4.38,4.51,1.54,4.29,1.54,7-.51,5.06-1.54,7.01-2.49,3.46-4.4,4.52-4.2,1.58-6.86,1.58Z"/>
        <path class="cls-6" d="m536.24,70.57v-19.41h5.08v3.36h.18c.35-1.18.94-2.08,1.76-2.68s1.79-.91,2.92-.91c.28,0,.57.01.88.04s.57.06.79.11v4.64c-.22-.07-.55-.13-.99-.17s-.86-.06-1.27-.06c-.77,0-1.47.17-2.1.51s-1.12.82-1.47,1.44-.53,1.35-.53,2.2v10.93h-5.24Z"/>
        <path class="cls-6" d="m555.72,70.94c-1.24,0-2.36-.22-3.34-.65s-1.76-1.08-2.32-1.94-.84-1.93-.84-3.21c0-1.09.2-2,.6-2.72s.94-1.31,1.63-1.76,1.48-.78,2.36-1.01,1.81-.39,2.79-.48c1.14-.12,2.05-.23,2.74-.33s1.2-.25,1.51-.47.47-.53.47-.95v-.09c0-.54-.12-1-.36-1.38s-.59-.67-1.05-.88-1.01-.31-1.67-.31-1.25.1-1.75.31-.9.48-1.21.83-.53.74-.66,1.17l-4.83-.62c.27-1.17.79-2.17,1.55-3.01s1.73-1.47,2.92-1.91,2.53-.66,4.04-.66c1.1,0,2.15.13,3.14.39s1.87.66,2.65,1.2,1.38,1.22,1.82,2.05.66,1.81.66,2.96v13.1h-5.01v-2.71h-.16c-.32.61-.74,1.15-1.26,1.61s-1.15.82-1.87,1.08-1.58.39-2.55.39Zm1.48-3.67c.83,0,1.56-.16,2.18-.49s1.11-.77,1.46-1.32.53-1.17.53-1.86v-2.06c-.15.09-.38.19-.68.28s-.64.18-1.01.25-.75.13-1.13.19-.73.11-1.05.16c-.63.09-1.2.24-1.69.45s-.87.48-1.14.83-.4.78-.4,1.29.13.91.38,1.25.6.6,1.04.77.95.26,1.52.26Z"/>
        <path class="cls-6" d="m574.97,70.57l-5.78-19.41h5.5l1.71,7.08c.3,1.31.62,2.72.96,4.23s.65,3.13.94,4.88h-.63c.32-1.72.65-3.34,1.01-4.85s.7-2.93,1.03-4.25l1.79-7.08h4.82l1.74,7.08c.32,1.32.65,2.74,1.01,4.25s.69,3.13,1.01,4.86h-.62c.29-1.72.6-3.34.91-4.84s.63-2.93.93-4.26l1.71-7.08h5.59l-5.82,19.41h-5.36l-2.16-7.54c-.21-.74-.42-1.55-.63-2.43s-.42-1.78-.62-2.7-.4-1.78-.6-2.58h.93c-.2.81-.4,1.67-.6,2.58s-.4,1.81-.61,2.7-.42,1.7-.64,2.43l-2.18,7.54h-5.34Z"/>
        <path class="cls-6" d="m603.83,48.65c-.81,0-1.5-.26-2.07-.79s-.85-1.17-.85-1.93.28-1.41.85-1.93,1.25-.79,2.05-.79,1.51.26,2.07.79.84,1.17.84,1.93-.28,1.41-.84,1.93-1.25.79-2.06.79Zm-2.62,21.92v-19.41h5.24v19.41h-5.24Z"/>
        <path class="cls-6" d="m616.01,59.42v11.14h-5.24v-19.41h4.99l.07,4.89h-.44c.53-1.64,1.32-2.91,2.38-3.81s2.42-1.35,4.09-1.35c1.35,0,2.53.29,3.53.88s1.79,1.43,2.34,2.53.83,2.43.83,3.97v12.3h-5.24v-11.37c0-1.23-.31-2.19-.93-2.87s-1.49-1.03-2.6-1.03c-.74,0-1.39.16-1.96.48s-1.01.79-1.34,1.4-.48,1.36-.48,2.25Z"/>
        <path class="cls-6" d="m641.63,78.3c-1.66,0-3.11-.22-4.32-.65s-2.2-1.03-2.95-1.8-1.25-1.65-1.51-2.65l4.62-.97c.16.39.42.75.76,1.09s.79.62,1.34.83,1.24.32,2.05.32c1.32,0,2.36-.32,3.11-.95s1.12-1.61,1.12-2.92v-3.45h-.32c-.27.57-.64,1.1-1.11,1.59s-1.06.88-1.78,1.17-1.58.44-2.58.44c-1.5,0-2.85-.36-4.06-1.08s-2.17-1.79-2.87-3.21-1.06-3.17-1.06-5.26.36-3.96,1.08-5.43,1.68-2.6,2.89-3.36,2.55-1.14,4.03-1.14c1.04,0,1.93.17,2.66.51s1.34.77,1.83,1.3.87,1.07,1.15,1.63h.16v-3.16h5.19v19.12c0,1.8-.4,3.3-1.21,4.49s-1.92,2.07-3.33,2.65-3.04.87-4.88.87Zm.02-11.99c.9,0,1.67-.22,2.3-.67s1.12-1.08,1.45-1.91.5-1.82.5-2.98-.17-2.15-.5-3-.82-1.51-1.45-1.98-1.4-.7-2.3-.7-1.67.24-2.29.72-1.1,1.15-1.42,2-.48,1.84-.48,2.96.16,2.14.48,2.97.8,1.47,1.43,1.92,1.39.67,2.29.67Z"/>
        <path class="cls-6" d="m674.6,70.94c-2.17,0-4.06-.4-5.68-1.2s-2.87-1.91-3.77-3.35-1.34-3.1-1.34-5v-17.02h5.34v16.58c0,1.02.23,1.92.68,2.72s1.09,1.41,1.91,1.86,1.78.68,2.87.68,2.06-.23,2.88-.68,1.45-1.07,1.9-1.86.67-1.7.67-2.72v-16.58h5.36v17.02c0,1.9-.45,3.57-1.34,5s-2.16,2.55-3.78,3.35-3.52,1.2-5.69,1.2Z"/>
        <path class="cls-6" d="m689.82,77.92v-26.75h5.15v3.13h.23c.27-.55.64-1.09,1.11-1.61s1.07-.95,1.8-1.29,1.62-.51,2.66-.51c1.49,0,2.83.38,4.03,1.15s2.16,1.89,2.87,3.38,1.07,3.31,1.07,5.48-.35,3.94-1.05,5.43-1.65,2.62-2.86,3.41-2.58,1.18-4.11,1.18c-1.01,0-1.88-.17-2.6-.5s-1.33-.76-1.8-1.27-.85-1.05-1.13-1.62h-.14v10.41h-5.24Zm9.35-11.23c.91,0,1.68-.24,2.3-.73s1.09-1.17,1.42-2.04.48-1.89.48-3.05-.16-2.16-.48-3.02-.79-1.54-1.42-2.02-1.39-.72-2.3-.72-1.66.24-2.29.71-1.12,1.14-1.46,2-.5,1.88-.5,3.05.17,2.19.51,3.06.83,1.54,1.47,2.03,1.4.73,2.28.73Z"/>
        <path class="cls-6" d="m719.44,70.9c-1.54,0-2.91-.39-4.11-1.18s-2.16-1.92-2.86-3.41-1.05-3.3-1.05-5.43.36-3.99,1.07-5.48,1.68-2.61,2.88-3.38,2.55-1.15,4.03-1.15c1.04,0,1.93.17,2.65.51s1.33.77,1.8,1.29.85,1.06,1.12,1.63h.14v-9.93h5.24v26.19h-5.17v-3.08h-.19c-.27.56-.65,1.1-1.13,1.63s-1.09.95-1.81,1.28-1.59.5-2.61.5Zm1.55-4.22c.9,0,1.67-.24,2.3-.73s1.12-1.16,1.46-2.03.51-1.89.51-3.06-.17-2.19-.5-3.05-.82-1.53-1.46-2-1.41-.71-2.31-.71-1.65.24-2.28.72-1.1,1.15-1.42,2.02-.48,1.88-.48,3.02.16,2.18.48,3.05.8,1.55,1.42,2.04,1.39.73,2.28.73Z"/>
        <path class="cls-6" d="m740.2,70.94c-1.24,0-2.36-.22-3.34-.65s-1.76-1.08-2.32-1.94-.84-1.93-.84-3.21c0-1.09.2-2,.6-2.72s.94-1.31,1.63-1.76,1.48-.78,2.36-1.01,1.81-.39,2.79-.48c1.14-.12,2.05-.23,2.74-.33s1.2-.25,1.51-.47.47-.53.47-.95v-.09c0-.54-.12-1-.36-1.38s-.59-.67-1.05-.88-1.01-.31-1.67-.31-1.25.1-1.75.31-.9.48-1.21.83-.53.74-.66,1.17l-4.83-.62c.27-1.17.79-2.17,1.55-3.01s1.73-1.47,2.92-1.91,2.53-.66,4.04-.66c1.1,0,2.15.13,3.14.39s1.87.66,2.65,1.2,1.38,1.22,1.82,2.05.66,1.81.66,2.96v13.1h-5.01v-2.71h-.16c-.32.61-.74,1.15-1.26,1.61s-1.15.82-1.87,1.08-1.58.39-2.55.39Zm1.48-3.67c.83,0,1.56-.16,2.18-.49s1.11-.77,1.46-1.32.53-1.17.53-1.86v-2.06c-.15.09-.38.19-.68.28s-.64.18-1.01.25-.75.13-1.13.19-.73.11-1.05.16c-.63.09-1.2.24-1.69.45s-.87.48-1.14.83-.4.78-.4,1.29.13.91.38,1.25.6.6,1.04.77.95.26,1.52.26Z"/>
        <path class="cls-6" d="m765.3,51.16v4.03h-11.78v-4.03h11.78Zm-8.95-4.76h5.24v18.42c0,.62.14,1.08.41,1.36s.74.43,1.38.43c.23,0,.54-.02.91-.06s.65-.08.85-.11l.58,3.99c-.53.13-1.08.22-1.65.27s-1.13.08-1.67.08c-1.99,0-3.5-.46-4.52-1.38s-1.53-2.26-1.53-4.03v-18.97Z"/>
        <path class="cls-6" d="m777.01,70.96c-1.98,0-3.69-.41-5.12-1.23s-2.54-1.98-3.32-3.48-1.17-3.26-1.17-5.29.39-3.76,1.16-5.26,1.86-2.68,3.27-3.53,3.05-1.27,4.94-1.27c1.3,0,2.51.21,3.62.63s2.09,1.05,2.93,1.87,1.49,1.86,1.95,3.09.69,2.66.69,4.28v1.46h-16.47v-3.3h13.92l-2.44.86c0-1.01-.16-1.88-.47-2.62s-.78-1.31-1.4-1.71-1.37-.61-2.28-.61-1.67.21-2.3.62-1.12.97-1.45,1.69-.5,1.54-.5,2.46v2.32c0,1.09.19,2.02.56,2.78s.91,1.34,1.59,1.73,1.49.59,2.4.59c.62,0,1.19-.09,1.7-.27s.94-.45,1.3-.79.63-.77.82-1.27l4.76.69c-.3,1.12-.85,2.11-1.64,2.94s-1.78,1.49-2.97,1.95-2.55.69-4.07.69Z"/>
        <path class="cls-6" d="m797.16,70.97c-1.58,0-2.99-.23-4.21-.69s-2.22-1.13-2.99-2.01-1.25-1.93-1.45-3.16l4.94-.67c.22.89.65,1.56,1.28,2.02s1.48.69,2.53.69c1,0,1.78-.19,2.36-.57s.86-.86.86-1.45c0-.5-.21-.92-.62-1.24s-1.04-.57-1.87-.75l-3.36-.67c-1.88-.39-3.28-1.04-4.22-1.97s-1.41-2.12-1.41-3.59c0-1.23.34-2.3,1.01-3.2s1.62-1.6,2.85-2.09,2.66-.74,4.3-.74,2.93.22,4.08.67,2.07,1.08,2.77,1.9,1.14,1.79,1.33,2.9l-4.69.65c-.16-.69-.53-1.26-1.1-1.7s-1.33-.66-2.28-.66c-.88,0-1.6.18-2.17.55s-.85.85-.85,1.43c0,.49.19.91.58,1.24s1.02.59,1.9.76l3.52.7c1.9.38,3.31,1,4.23,1.86s1.38,2,1.38,3.39c0,1.28-.37,2.39-1.11,3.35s-1.76,1.7-3.07,2.23-2.81.8-4.51.8Z"/>
      </g>
      <g>
        <path class="cls-6" d="m1013.87,27.37V1.18h8.17l4.25,12.06c.18.56.38,1.28.62,2.15s.47,1.81.71,2.8.46,1.96.67,2.89.38,1.74.52,2.42h-1.12c.14-.67.31-1.46.52-2.39s.43-1.89.67-2.89.47-1.94.7-2.82.44-1.6.62-2.16l4.18-12.06h8.19v26.19h-5.38v-12.38c0-.57,0-1.28.03-2.13s.04-1.75.07-2.72.06-1.95.08-2.94.04-1.92.05-2.8h.4c-.23.96-.49,1.95-.76,2.97s-.55,2.01-.83,2.98-.53,1.85-.77,2.65-.45,1.47-.62,2l-4.36,12.38h-4.5l-4.41-12.38c-.19-.53-.4-1.19-.64-1.99s-.5-1.68-.78-2.64-.56-1.95-.84-2.97-.55-2.02-.81-3.01h.49c.01.84.03,1.76.05,2.74l.07,2.95c.02.98.05,1.9.07,2.75s.04,1.57.04,2.15v12.38h-5.34Z"/>
        <path class="cls-6" d="m1052.53,27.74c-1.24,0-2.36-.22-3.34-.65s-1.76-1.08-2.32-1.94-.84-1.93-.84-3.21c0-1.09.2-2,.6-2.72s.94-1.31,1.63-1.76,1.48-.78,2.36-1.01,1.81-.39,2.79-.48c1.14-.12,2.05-.23,2.74-.33s1.2-.25,1.51-.47.47-.53.47-.95v-.09c0-.54-.12-1-.36-1.38s-.59-.67-1.05-.88-1.01-.31-1.67-.31-1.25.1-1.75.31-.9.48-1.21.83-.53.74-.66,1.17l-4.83-.62c.27-1.17.79-2.17,1.55-3.01s1.73-1.47,2.92-1.91,2.53-.66,4.04-.66c1.1,0,2.15.13,3.14.39s1.87.66,2.65,1.2,1.38,1.22,1.82,2.05.66,1.81.66,2.96v13.1h-5.01v-2.71h-.16c-.32.61-.74,1.15-1.26,1.61s-1.15.82-1.87,1.08-1.58.39-2.55.39Zm1.48-3.67c.83,0,1.56-.16,2.18-.49s1.11-.77,1.46-1.32.53-1.17.53-1.86v-2.06c-.15.09-.38.19-.68.28s-.64.18-1.01.25-.75.13-1.13.19-.73.11-1.05.16c-.63.09-1.2.24-1.69.45s-.87.48-1.14.83-.4.78-.4,1.29.13.91.38,1.25.6.6,1.04.77.95.26,1.52.26Z"/>
        <path class="cls-6" d="m1077.63,7.96v4.03h-11.78v-4.03h11.78Zm-8.95-4.76h5.24v18.42c0,.62.14,1.08.41,1.36s.74.43,1.38.43c.23,0,.54-.02.91-.06s.65-.08.85-.11l.58,3.99c-.53.13-1.08.22-1.65.27s-1.13.08-1.67.08c-1.99,0-3.5-.46-4.52-1.38s-1.53-2.26-1.53-4.03V3.2Z"/>
        <path class="cls-6" d="m1089.34,27.76c-1.98,0-3.69-.41-5.12-1.23s-2.54-1.98-3.32-3.48-1.17-3.26-1.17-5.29.39-3.76,1.16-5.26,1.86-2.68,3.27-3.53,3.05-1.27,4.94-1.27c1.3,0,2.51.21,3.62.63s2.09,1.05,2.93,1.87,1.49,1.86,1.95,3.09.69,2.66.69,4.28v1.46h-16.47v-3.3h13.92l-2.44.86c0-1.01-.16-1.88-.47-2.62s-.78-1.31-1.4-1.71-1.37-.61-2.28-.61-1.67.21-2.3.62-1.12.97-1.45,1.69-.5,1.54-.5,2.46v2.32c0,1.09.19,2.02.56,2.78s.91,1.34,1.59,1.73,1.49.59,2.4.59c.62,0,1.19-.09,1.7-.27s.94-.45,1.3-.79.63-.77.82-1.27l4.76.69c-.3,1.12-.85,2.11-1.64,2.94s-1.78,1.49-2.97,1.95-2.55.69-4.07.69Z"/>
        <path class="cls-6" d="m1101.71,27.37V7.96h5.08v3.36h.18c.35-1.18.94-2.08,1.76-2.68s1.79-.91,2.92-.91c.28,0,.57.01.88.04s.57.06.79.11v4.64c-.22-.07-.55-.13-.99-.17s-.86-.06-1.27-.06c-.77,0-1.47.17-2.1.51s-1.12.82-1.47,1.44-.53,1.35-.53,2.2v10.93h-5.24Z"/>
        <path class="cls-6" d="m1118.9,5.45c-.81,0-1.5-.26-2.07-.79s-.85-1.17-.85-1.93.28-1.41.85-1.93,1.25-.79,2.05-.79,1.51.26,2.07.79.84,1.17.84,1.93-.28,1.41-.84,1.93-1.25.79-2.06.79Zm-2.62,21.92V7.96h5.24v19.41h-5.24Z"/>
        <path class="cls-6" d="m1131.37,27.74c-1.24,0-2.36-.22-3.34-.65s-1.76-1.08-2.32-1.94-.84-1.93-.84-3.21c0-1.09.2-2,.6-2.72s.94-1.31,1.63-1.76,1.48-.78,2.36-1.01,1.81-.39,2.79-.48c1.14-.12,2.05-.23,2.74-.33s1.2-.25,1.51-.47.47-.53.47-.95v-.09c0-.54-.12-1-.36-1.38s-.59-.67-1.05-.88-1.01-.31-1.67-.31-1.25.1-1.75.31-.9.48-1.21.83-.53.74-.66,1.17l-4.83-.62c.27-1.17.79-2.17,1.55-3.01s1.73-1.47,2.92-1.91,2.53-.66,4.04-.66c1.1,0,2.15.13,3.14.39s1.87.66,2.65,1.2,1.38,1.22,1.82,2.05.66,1.81.66,2.96v13.1h-5.01v-2.71h-.16c-.32.61-.74,1.15-1.26,1.61s-1.15.82-1.87,1.08-1.58.39-2.55.39Zm1.48-3.67c.83,0,1.56-.16,2.18-.49s1.11-.77,1.46-1.32.53-1.17.53-1.86v-2.06c-.15.09-.38.19-.68.28s-.64.18-1.01.25-.75.13-1.13.19-.73.11-1.05.16c-.63.09-1.2.24-1.69.45s-.87.48-1.14.83-.4.78-.4,1.29.13.91.38,1.25.6.6,1.04.77.95.26,1.52.26Z"/>
        <path class="cls-6" d="m1151.76,1.18v26.19h-5.24V1.18h5.24Z"/>
        <path class="cls-6" d="m1172.36,27.76c-1.8,0-3.36-.33-4.67-.98s-2.31-1.53-3.02-2.64-1.06-2.33-1.06-3.68c0-1.04.2-1.96.6-2.74s.97-1.52,1.71-2.2,1.62-1.37,2.64-2.06l5.03-3.32c.38-.26.71-.54.99-.83s.51-.62.67-.96.24-.7.24-1.07c0-.6-.21-1.11-.64-1.54s-1.03-.64-1.82-.64c-.52,0-.97.1-1.35.31s-.69.49-.91.85-.33.79-.33,1.28c0,.56.14,1.12.42,1.67s.67,1.14,1.18,1.77,1.1,1.33,1.78,2.12l12.39,14.27h-5.55l-10.3-11.57c-.75-.87-1.46-1.73-2.14-2.58s-1.23-1.75-1.66-2.69-.64-1.95-.64-3.04c0-1.25.29-2.38.88-3.38s1.41-1.79,2.48-2.37,2.31-.87,3.73-.87,2.6.28,3.6.83,1.79,1.3,2.34,2.22.83,1.96.83,3.11c0,.79-.14,1.54-.42,2.25s-.68,1.38-1.2,2-1.14,1.19-1.86,1.73l-5.34,3.85c-.71.53-1.26,1.05-1.63,1.56s-.55,1.12-.55,1.81.16,1.23.48,1.72.77.88,1.34,1.15,1.23.41,1.97.41c.96,0,1.9-.22,2.8-.65s1.73-1.04,2.47-1.83,1.33-1.72,1.77-2.79.66-2.26.66-3.55h4.39c0,1.55-.17,2.95-.5,4.21s-.81,2.36-1.42,3.31-1.32,1.73-2.13,2.34l-1.34.88c-.95.79-2.04,1.37-3.27,1.75s-2.44.57-3.62.57Z"/>
        <path class="cls-6" d="m1196.86,27.37V1.18h17.82v4.5h-12.45v6.26h11.5v4.41h-11.5v6.52h12.46v4.5h-17.84Z"/>
        <path class="cls-6" d="m1223.86,1.18v26.19h-5.24V1.18h5.24Z"/>
        <path class="cls-6" d="m1236.98,27.76c-1.98,0-3.69-.41-5.12-1.23s-2.54-1.98-3.32-3.48-1.17-3.26-1.17-5.29.39-3.76,1.16-5.26,1.86-2.68,3.27-3.53,3.05-1.27,4.94-1.27c1.3,0,2.51.21,3.62.63s2.09,1.05,2.93,1.87,1.49,1.86,1.95,3.09.69,2.66.69,4.28v1.46h-16.47v-3.3h13.92l-2.44.86c0-1.01-.16-1.88-.47-2.62s-.78-1.31-1.4-1.71-1.37-.61-2.28-.61-1.67.21-2.3.62-1.12.97-1.45,1.69-.5,1.54-.5,2.46v2.32c0,1.09.19,2.02.56,2.78s.91,1.34,1.59,1.73,1.49.59,2.4.59c.62,0,1.19-.09,1.7-.27s.94-.45,1.3-.79.63-.77.82-1.27l4.76.69c-.3,1.12-.85,2.11-1.64,2.94s-1.78,1.49-2.97,1.95-2.55.69-4.07.69Z"/>
        <path class="cls-6" d="m1254.17,27.37l-7.15-19.41h5.55l3.25,9.97c.4,1.23.75,2.47,1.05,3.73s.61,2.55.91,3.88h-1.14c.3-1.34.61-2.63.91-3.88s.64-2.49,1.03-3.74l3.2-9.97h5.5l-7.15,19.41h-5.96Z"/>
        <path class="cls-6" d="m1275.01,27.74c-1.24,0-2.36-.22-3.34-.65s-1.76-1.08-2.32-1.94-.84-1.93-.84-3.21c0-1.09.2-2,.6-2.72s.94-1.31,1.63-1.76,1.48-.78,2.36-1.01,1.81-.39,2.79-.48c1.14-.12,2.05-.23,2.74-.33s1.2-.25,1.51-.47.47-.53.47-.95v-.09c0-.54-.12-1-.36-1.38s-.59-.67-1.05-.88-1.01-.31-1.67-.31-1.25.1-1.75.31-.9.48-1.21.83-.53.74-.66,1.17l-4.83-.62c.27-1.17.79-2.17,1.55-3.01s1.73-1.47,2.92-1.91,2.53-.66,4.04-.66c1.1,0,2.15.13,3.14.39s1.87.66,2.65,1.2,1.38,1.22,1.82,2.05.66,1.81.66,2.96v13.1h-5.01v-2.71h-.16c-.32.61-.74,1.15-1.26,1.61s-1.15.82-1.87,1.08-1.58.39-2.55.39Zm1.48-3.67c.83,0,1.56-.16,2.18-.49s1.11-.77,1.46-1.32.53-1.17.53-1.86v-2.06c-.15.09-.38.19-.68.28s-.64.18-1.01.25-.75.13-1.13.19-.73.11-1.05.16c-.63.09-1.2.24-1.69.45s-.87.48-1.14.83-.4.78-.4,1.29.13.91.38,1.25.6.6,1.04.77.95.26,1.52.26Z"/>
        <path class="cls-6" d="m1300.12,7.96v4.03h-11.78v-4.03h11.78Zm-8.95-4.76h5.24v18.42c0,.62.14,1.08.41,1.36s.74.43,1.38.43c.23,0,.54-.02.91-.06s.65-.08.85-.11l.58,3.99c-.53.13-1.08.22-1.65.27s-1.13.08-1.67.08c-1.99,0-3.5-.46-4.52-1.38s-1.53-2.26-1.53-4.03V3.2Z"/>
        <path class="cls-6" d="m1305.99,5.45c-.81,0-1.5-.26-2.07-.79s-.85-1.17-.85-1.93.28-1.41.85-1.93,1.25-.79,2.05-.79,1.51.26,2.07.79.84,1.17.84,1.93-.28,1.41-.84,1.93-1.25.79-2.06.79Zm-2.62,21.92V7.96h5.24v19.41h-5.24Z"/>
        <path class="cls-6" d="m1321.68,27.76c-1.96,0-3.65-.42-5.09-1.26s-2.54-2.01-3.32-3.52-1.17-3.25-1.17-5.25.39-3.78,1.17-5.28,1.89-2.68,3.32-3.52,3.13-1.26,5.09-1.26,3.64.42,5.07,1.26,2.54,2.01,3.32,3.52,1.17,3.27,1.17,5.28-.39,3.74-1.17,5.25-1.89,2.68-3.32,3.52-3.13,1.26-5.07,1.26Zm0-4.15c.91,0,1.68-.25,2.31-.76s1.1-1.2,1.43-2.08.49-1.9.49-3.05-.16-2.18-.49-3.06-.81-1.57-1.43-2.07-1.4-.76-2.31-.76-1.69.25-2.32.76-1.11,1.2-1.43,2.07-.48,1.9-.48,3.06.16,2.17.48,3.05.8,1.58,1.42,2.08,1.4.76,2.33.76Z"/>
        <path class="cls-6" d="m1339.98,16.22v11.14h-5.24V7.96h4.99l.07,4.89h-.44c.53-1.64,1.32-2.91,2.38-3.81s2.42-1.35,4.09-1.35c1.35,0,2.53.29,3.53.88s1.79,1.43,2.34,2.53.83,2.43.83,3.97v12.3h-5.24v-11.37c0-1.23-.31-2.19-.93-2.87s-1.49-1.03-2.6-1.03c-.74,0-1.39.16-1.96.48s-1.01.79-1.34,1.4-.48,1.36-.48,2.25Z"/>
        <path class="cls-6" d="m1075.32,44.38v26.19h-5.38v-26.19h5.38Zm3.85,26.19h-6.79v-4.61h6.52c1.7,0,3.12-.3,4.26-.91s2-1.54,2.58-2.8.86-2.86.86-4.79-.29-3.51-.86-4.76-1.43-2.19-2.57-2.79-2.55-.91-4.24-.91h-6.68v-4.61h7c2.64,0,4.9.52,6.79,1.57s3.35,2.55,4.38,4.51,1.54,4.29,1.54,7-.51,5.06-1.54,7.01-2.49,3.46-4.4,4.52-4.2,1.58-6.86,1.58Z"/>
        <path class="cls-6" d="m1104.44,70.96c-1.98,0-3.69-.41-5.12-1.23s-2.54-1.98-3.32-3.48-1.17-3.26-1.17-5.29.39-3.76,1.16-5.26,1.86-2.68,3.27-3.53,3.05-1.27,4.94-1.27c1.3,0,2.51.21,3.62.63s2.09,1.05,2.93,1.87,1.49,1.86,1.95,3.09.69,2.66.69,4.28v1.46h-16.47v-3.3h13.92l-2.44.86c0-1.01-.16-1.88-.47-2.62s-.78-1.31-1.4-1.71-1.37-.61-2.28-.61-1.67.21-2.3.62-1.12.97-1.45,1.69-.5,1.54-.5,2.46v2.32c0,1.09.19,2.02.56,2.78s.91,1.34,1.59,1.73,1.49.59,2.4.59c.62,0,1.19-.09,1.7-.27s.94-.45,1.3-.79.63-.77.82-1.27l4.76.69c-.3,1.12-.85,2.11-1.64,2.94s-1.78,1.49-2.97,1.95-2.55.69-4.07.69Z"/>
        <path class="cls-6" d="m1121.64,70.57l-7.15-19.41h5.55l3.25,9.97c.4,1.23.75,2.47,1.05,3.73s.61,2.55.91,3.88h-1.14c.3-1.34.61-2.63.91-3.88s.64-2.49,1.03-3.74l3.2-9.97h5.5l-7.15,19.41h-5.96Z"/>
        <path class="cls-6" d="m1145.52,70.96c-1.98,0-3.69-.41-5.12-1.23s-2.54-1.98-3.32-3.48-1.17-3.26-1.17-5.29.39-3.76,1.16-5.26,1.86-2.68,3.27-3.53,3.05-1.27,4.94-1.27c1.3,0,2.51.21,3.62.63s2.09,1.05,2.93,1.87,1.49,1.86,1.95,3.09.69,2.66.69,4.28v1.46h-16.47v-3.3h13.92l-2.44.86c0-1.01-.16-1.88-.47-2.62s-.78-1.31-1.4-1.71-1.37-.61-2.28-.61-1.67.21-2.3.62-1.12.97-1.45,1.69-.5,1.54-.5,2.46v2.32c0,1.09.19,2.02.56,2.78s.91,1.34,1.59,1.73,1.49.59,2.4.59c.62,0,1.19-.09,1.7-.27s.94-.45,1.3-.79.63-.77.82-1.27l4.76.69c-.3,1.12-.85,2.11-1.64,2.94s-1.78,1.49-2.97,1.95-2.55.69-4.07.69Z"/>
        <path class="cls-6" d="m1163.14,44.38v26.19h-5.24v-26.19h5.24Z"/>
        <path class="cls-6" d="m1176.22,70.96c-1.96,0-3.65-.42-5.09-1.26s-2.54-2.01-3.32-3.52-1.17-3.25-1.17-5.25.39-3.78,1.17-5.28,1.89-2.68,3.32-3.52,3.13-1.26,5.09-1.26,3.64.42,5.07,1.26,2.54,2.01,3.32,3.52,1.17,3.27,1.17,5.28-.39,3.74-1.17,5.25-1.89,2.68-3.32,3.52-3.13,1.26-5.07,1.26Zm0-4.15c.91,0,1.68-.25,2.31-.76s1.1-1.2,1.43-2.08.49-1.9.49-3.05-.16-2.18-.49-3.06-.81-1.57-1.43-2.07-1.4-.76-2.31-.76-1.69.25-2.32.76-1.11,1.2-1.43,2.07-.48,1.9-.48,3.06.16,2.17.48,3.05.8,1.58,1.42,2.08,1.4.76,2.33.76Z"/>
        <path class="cls-6" d="m1189.28,77.92v-26.75h5.15v3.13h.23c.27-.55.64-1.09,1.11-1.61s1.07-.95,1.8-1.29,1.62-.51,2.66-.51c1.49,0,2.83.38,4.03,1.15s2.16,1.89,2.87,3.38,1.07,3.31,1.07,5.48-.35,3.94-1.05,5.43-1.65,2.62-2.86,3.41-2.58,1.18-4.11,1.18c-1.01,0-1.88-.17-2.6-.5s-1.33-.76-1.8-1.27-.85-1.05-1.13-1.62h-.14v10.41h-5.24Zm9.35-11.23c.91,0,1.68-.24,2.3-.73s1.09-1.17,1.42-2.04.48-1.89.48-3.05-.16-2.16-.48-3.02-.79-1.54-1.42-2.02-1.39-.72-2.3-.72-1.66.24-2.29.71-1.12,1.14-1.46,2-.5,1.88-.5,3.05.17,2.19.51,3.06.83,1.54,1.47,2.03,1.4.73,2.28.73Z"/>
        <path class="cls-6" d="m1211.71,70.57v-19.41h4.9l.21,4.73h-.37c.3-1.17.75-2.13,1.34-2.87s1.29-1.29,2.08-1.64,1.63-.53,2.51-.53c1.41,0,2.56.44,3.47,1.32s1.55,2.2,1.92,3.97h-.6c.27-1.2.73-2.18,1.38-2.96s1.42-1.36,2.32-1.75,1.85-.58,2.86-.58c1.2,0,2.26.26,3.21.78s1.69,1.28,2.23,2.27.82,2.2.82,3.63v13.04h-5.26v-12.04c0-1.11-.3-1.94-.9-2.49s-1.34-.82-2.21-.82c-.67,0-1.25.14-1.73.43s-.86.69-1.12,1.2-.4,1.12-.4,1.83v11.88h-5.08v-12.2c0-.96-.28-1.73-.85-2.29s-1.3-.85-2.21-.85c-.62,0-1.18.14-1.68.42s-.89.69-1.19,1.24-.44,1.22-.44,2.01v11.67h-5.24Z"/>
        <path class="cls-6" d="m1253.1,70.96c-1.98,0-3.69-.41-5.12-1.23s-2.54-1.98-3.32-3.48-1.17-3.26-1.17-5.29.39-3.76,1.16-5.26,1.86-2.68,3.27-3.53,3.05-1.27,4.94-1.27c1.3,0,2.51.21,3.62.63s2.09,1.05,2.93,1.87,1.49,1.86,1.95,3.09.69,2.66.69,4.28v1.46h-16.47v-3.3h13.92l-2.44.86c0-1.01-.16-1.88-.47-2.62s-.78-1.31-1.4-1.71-1.37-.61-2.28-.61-1.67.21-2.3.62-1.12.97-1.45,1.69-.5,1.54-.5,2.46v2.32c0,1.09.19,2.02.56,2.78s.91,1.34,1.59,1.73,1.49.59,2.4.59c.62,0,1.19-.09,1.7-.27s.94-.45,1.3-.79.63-.77.82-1.27l4.76.69c-.3,1.12-.85,2.11-1.64,2.94s-1.78,1.49-2.97,1.95-2.55.69-4.07.69Z"/>
        <path class="cls-6" d="m1270.72,59.42v11.14h-5.24v-19.41h4.99l.07,4.89h-.44c.53-1.64,1.32-2.91,2.38-3.81s2.42-1.35,4.09-1.35c1.35,0,2.53.29,3.53.88s1.79,1.43,2.34,2.53.83,2.43.83,3.97v12.3h-5.24v-11.37c0-1.23-.31-2.19-.93-2.87s-1.49-1.03-2.6-1.03c-.74,0-1.39.16-1.96.48s-1.01.79-1.34,1.4-.48,1.36-.48,2.25Z"/>
        <path class="cls-6" d="m1297.54,51.16v4.03h-11.78v-4.03h11.78Zm-8.95-4.76h5.24v18.42c0,.62.14,1.08.41,1.36s.74.43,1.38.43c.23,0,.54-.02.91-.06s.65-.08.85-.11l.58,3.99c-.53.13-1.08.22-1.65.27s-1.13.08-1.67.08c-1.99,0-3.5-.46-4.52-1.38s-1.53-2.26-1.53-4.03v-18.97Z"/>
      </g>
      <g>
        <path class="cls-6" d="m258.63,627c-2.32,0-4.41-.53-6.26-1.6s-3.31-2.6-4.39-4.61-1.61-4.42-1.61-7.24.54-5.26,1.61-7.27,2.53-3.55,4.39-4.61,3.94-1.6,6.26-1.6,4.4.53,6.25,1.6,3.3,2.6,4.38,4.61,1.61,4.43,1.61,7.27-.54,5.24-1.61,7.25-2.53,3.54-4.38,4.61-3.93,1.59-6.25,1.59Zm0-4.76c1.36,0,2.55-.33,3.57-1s1.81-1.65,2.38-2.94.85-2.87.85-4.74-.28-3.46-.85-4.76-1.36-2.29-2.38-2.95-2.21-1-3.57-1-2.53.34-3.56,1.01-1.82,1.66-2.39,2.95-.85,2.88-.85,4.75.28,3.44.85,4.73,1.37,2.27,2.39,2.94,2.21,1.01,3.56,1.01Zm-1.76-4.61h4.59l2.43,3.11,2.16,2.53,4.39,5.54h-4.99l-2.97-3.73-1.51-2.07-4.1-5.38Z"/>
        <path class="cls-6" d="m281.43,626.91c-1.35,0-2.53-.29-3.53-.88s-1.79-1.43-2.34-2.54-.83-2.43-.83-3.96v-12.3h5.24v11.37c0,1.23.31,2.19.94,2.87s1.49,1.02,2.59,1.02c.74,0,1.39-.16,1.96-.47s1.01-.78,1.34-1.4.48-1.36.48-2.24v-11.14h5.26v19.41h-5.01l-.07-4.89h.44c-.54,1.64-1.34,2.91-2.4,3.81s-2.42,1.35-4.07,1.35Z"/>
        <path class="cls-6" d="m305.63,627.02c-1.98,0-3.69-.41-5.12-1.23s-2.54-1.98-3.32-3.48-1.17-3.26-1.17-5.29.39-3.76,1.16-5.26,1.86-2.68,3.27-3.53,3.05-1.27,4.94-1.27c1.3,0,2.51.21,3.62.63s2.09,1.05,2.93,1.87,1.49,1.86,1.95,3.09.69,2.66.69,4.28v1.46h-16.47v-3.3h13.92l-2.44.86c0-1.01-.16-1.88-.47-2.62s-.78-1.31-1.4-1.71-1.37-.61-2.28-.61-1.67.21-2.3.62-1.12.97-1.45,1.69-.5,1.54-.5,2.46v2.32c0,1.09.19,2.02.56,2.78s.91,1.34,1.59,1.73,1.49.59,2.4.59c.62,0,1.19-.09,1.7-.27s.94-.45,1.3-.79.63-.77.82-1.27l4.76.69c-.3,1.12-.85,2.11-1.64,2.94s-1.78,1.49-2.97,1.95-2.55.69-4.07.69Z"/>
        <path class="cls-6" d="m318.01,626.63v-19.41h5.08v3.36h.18c.35-1.18.94-2.08,1.76-2.68s1.79-.91,2.92-.91c.28,0,.57.01.88.04s.57.06.79.11v4.64c-.22-.07-.55-.13-.99-.17s-.86-.06-1.27-.06c-.77,0-1.47.17-2.1.51s-1.12.82-1.47,1.44-.53,1.35-.53,2.2v10.93h-5.24Z"/>
        <path class="cls-6" d="m332.93,633.68l.95-4.01,1.02.14c.64.14,1.21.16,1.7.07s.88-.31,1.18-.66.5-.82.59-1.43l.23-1.12-7.33-19.44h5.55l3.27,9.97c.4,1.24.73,2.49.99,3.74s.55,2.54.87,3.88h-1.27c.32-1.34.63-2.63.95-3.88s.67-2.5,1.07-3.73l3.39-9.97h5.5l-8.31,21.85c-.4,1.04-.9,1.94-1.5,2.69s-1.34,1.32-2.22,1.72-1.94.6-3.18.6c-.67,0-1.3-.04-1.91-.11s-1.12-.17-1.54-.29Z"/>
        <path class="cls-6" d="m362.69,626.63v-26.19h10.28c1.98,0,3.67.35,5.08,1.05s2.48,1.69,3.23,2.97,1.12,2.78,1.12,4.52-.38,3.21-1.14,4.46-1.86,2.21-3.29,2.88-3.15,1-5.17,1h-6.91v-4.34h6.26c1.05,0,1.93-.16,2.64-.47s1.23-.76,1.59-1.36.54-1.32.54-2.18-.18-1.62-.54-2.22-.89-1.07-1.59-1.39-1.59-.48-2.65-.48h-4.06v21.74h-5.38Zm14.64,0l-6.29-11.9h5.8l6.42,11.9h-5.92Z"/>
        <path class="cls-6" d="m394.44,627.02c-1.98,0-3.69-.41-5.12-1.23s-2.54-1.98-3.32-3.48-1.17-3.26-1.17-5.29.39-3.76,1.16-5.26,1.86-2.68,3.27-3.53,3.05-1.27,4.94-1.27c1.3,0,2.51.21,3.62.63s2.09,1.05,2.93,1.87,1.49,1.86,1.95,3.09.69,2.66.69,4.28v1.46h-16.47v-3.3h13.92l-2.44.86c0-1.01-.16-1.88-.47-2.62s-.78-1.31-1.4-1.71-1.37-.61-2.28-.61-1.67.21-2.3.62-1.12.97-1.45,1.69-.5,1.54-.5,2.46v2.32c0,1.09.19,2.02.56,2.78s.91,1.34,1.59,1.73,1.49.59,2.4.59c.62,0,1.19-.09,1.7-.27s.94-.45,1.3-.79.63-.77.82-1.27l4.76.69c-.3,1.12-.85,2.11-1.64,2.94s-1.78,1.49-2.97,1.95-2.55.69-4.07.69Z"/>
        <path class="cls-6" d="m414.58,627.03c-1.58,0-2.99-.23-4.21-.69s-2.22-1.13-2.99-2.01-1.25-1.93-1.45-3.16l4.94-.67c.22.89.65,1.56,1.28,2.02s1.48.69,2.53.69c1,0,1.78-.19,2.36-.57s.86-.86.86-1.45c0-.5-.21-.92-.62-1.24s-1.04-.57-1.87-.75l-3.36-.67c-1.88-.39-3.28-1.04-4.22-1.97s-1.41-2.12-1.41-3.59c0-1.23.34-2.3,1.01-3.2s1.62-1.6,2.85-2.09,2.66-.74,4.3-.74,2.93.22,4.08.67,2.07,1.08,2.77,1.9,1.14,1.79,1.33,2.9l-4.69.65c-.16-.69-.53-1.26-1.1-1.7s-1.33-.66-2.28-.66c-.88,0-1.6.18-2.17.55s-.85.85-.85,1.43c0,.49.19.91.58,1.24s1.02.59,1.9.76l3.52.7c1.9.38,3.31,1,4.23,1.86s1.38,2,1.38,3.39c0,1.28-.37,2.39-1.11,3.35s-1.76,1.7-3.07,2.23-2.81.8-4.51.8Z"/>
        <path class="cls-6" d="m435.41,627.02c-1.96,0-3.65-.42-5.09-1.26s-2.54-2.01-3.32-3.52-1.17-3.25-1.17-5.25.39-3.78,1.17-5.28,1.89-2.68,3.32-3.52,3.13-1.26,5.09-1.26,3.64.42,5.07,1.26,2.54,2.01,3.32,3.52,1.17,3.27,1.17,5.28-.39,3.74-1.17,5.25-1.89,2.68-3.32,3.52-3.13,1.26-5.07,1.26Zm0-4.15c.91,0,1.68-.25,2.31-.76s1.1-1.2,1.43-2.08.49-1.9.49-3.05-.16-2.18-.49-3.06-.81-1.57-1.43-2.07-1.4-.76-2.31-.76-1.69.25-2.32.76-1.11,1.2-1.43,2.07-.48,1.9-.48,3.06.16,2.17.48,3.05.8,1.58,1.42,2.08,1.4.76,2.33.76Z"/>
        <path class="cls-6" d="m453.71,600.44v26.19h-5.24v-26.19h5.24Z"/>
        <path class="cls-6" d="m464.73,626.91c-1.35,0-2.53-.29-3.53-.88s-1.79-1.43-2.34-2.54-.83-2.43-.83-3.96v-12.3h5.24v11.37c0,1.23.31,2.19.94,2.87s1.49,1.02,2.59,1.02c.74,0,1.39-.16,1.96-.47s1.01-.78,1.34-1.4.48-1.36.48-2.24v-11.14h5.26v19.41h-5.01l-.07-4.89h.44c-.54,1.64-1.34,2.91-2.4,3.81s-2.42,1.35-4.07,1.35Z"/>
        <path class="cls-6" d="m490.1,607.22v4.03h-11.78v-4.03h11.78Zm-8.95-4.76h5.24v18.42c0,.62.14,1.08.41,1.36s.74.43,1.38.43c.23,0,.54-.02.91-.06s.65-.08.85-.11l.58,3.99c-.53.13-1.08.22-1.65.27s-1.13.08-1.67.08c-1.99,0-3.5-.46-4.52-1.38s-1.53-2.26-1.53-4.03v-18.97Z"/>
        <path class="cls-6" d="m495.97,604.71c-.81,0-1.5-.26-2.07-.79s-.85-1.17-.85-1.93.28-1.41.85-1.93,1.25-.79,2.05-.79,1.51.26,2.07.79.84,1.17.84,1.93-.28,1.41-.84,1.93-1.25.79-2.06.79Zm-2.62,21.92v-19.41h5.24v19.41h-5.24Z"/>
        <path class="cls-6" d="m511.66,627.02c-1.96,0-3.65-.42-5.09-1.26s-2.54-2.01-3.32-3.52-1.17-3.25-1.17-5.25.39-3.78,1.17-5.28,1.89-2.68,3.32-3.52,3.13-1.26,5.09-1.26,3.64.42,5.07,1.26,2.54,2.01,3.32,3.52,1.17,3.27,1.17,5.28-.39,3.74-1.17,5.25-1.89,2.68-3.32,3.52-3.13,1.26-5.07,1.26Zm0-4.15c.91,0,1.68-.25,2.31-.76s1.1-1.2,1.43-2.08.49-1.9.49-3.05-.16-2.18-.49-3.06-.81-1.57-1.43-2.07-1.4-.76-2.31-.76-1.69.25-2.32.76-1.11,1.2-1.43,2.07-.48,1.9-.48,3.06.16,2.17.48,3.05.8,1.58,1.42,2.08,1.4.76,2.33.76Z"/>
        <path class="cls-6" d="m529.96,615.48v11.14h-5.24v-19.41h4.99l.07,4.89h-.44c.53-1.64,1.32-2.91,2.38-3.81s2.42-1.35,4.09-1.35c1.35,0,2.53.29,3.53.88s1.79,1.43,2.34,2.53.83,2.43.83,3.97v12.3h-5.24v-11.37c0-1.23-.31-2.19-.93-2.87s-1.49-1.03-2.6-1.03c-.74,0-1.39.16-1.96.48s-1.01.79-1.34,1.4-.48,1.36-.48,2.25Z"/>
      </g>
      <g>
        <path class="cls-6" d="m743.89,627c-1.97,0-3.69-.35-5.16-1.04s-2.62-1.64-3.45-2.84-1.26-2.58-1.28-4.12h5.36c.02.73.23,1.36.62,1.91s.93.96,1.6,1.26,1.44.44,2.31.44,1.64-.15,2.31-.46,1.2-.73,1.58-1.28.57-1.19.57-1.92-.2-1.37-.61-1.92-.98-.98-1.71-1.29-1.62-.47-2.64-.47h-2.39v-3.99h2.39c.88,0,1.65-.15,2.3-.44s1.17-.7,1.54-1.22.55-1.13.55-1.84-.16-1.29-.48-1.81-.77-.92-1.35-1.21-1.26-.44-2.05-.44-1.49.14-2.13.43-1.14.69-1.52,1.21-.58,1.15-.59,1.87h-5.15c.02-1.52.44-2.87,1.26-4.03s1.93-2.08,3.34-2.74,3.02-.99,4.83-.99,3.37.33,4.72.98,2.41,1.53,3.16,2.64,1.13,2.35,1.13,3.74c0,1.46-.46,2.69-1.37,3.67s-2.1,1.62-3.55,1.92v.16c1.25.16,2.32.52,3.19,1.08s1.53,1.27,1.98,2.13.67,1.83.67,2.91c0,1.49-.43,2.82-1.28,3.98s-2.03,2.08-3.53,2.74-3.22.99-5.17.99Z"/>
        <path class="cls-6" d="m763.05,600.44v26.19h-5.38v-26.19h5.38Zm3.85,26.19h-6.79v-4.61h6.52c1.7,0,3.12-.3,4.26-.91s2-1.54,2.58-2.8.86-2.86.86-4.79-.29-3.51-.86-4.76-1.43-2.19-2.57-2.79-2.55-.91-4.24-.91h-6.68v-4.61h7c2.64,0,4.9.52,6.79,1.57s3.35,2.55,4.38,4.51,1.54,4.29,1.54,7-.51,5.06-1.54,7.01-2.49,3.46-4.4,4.52-4.2,1.58-6.86,1.58Z"/>
        <path class="cls-6" d="m791.85,626.63v-26.19h10.42c1.91,0,3.51.29,4.8.86s2.26,1.37,2.91,2.38.98,2.18.98,3.49c0,1.02-.2,1.92-.61,2.69s-.96,1.41-1.67,1.9-1.52.84-2.43,1.05v.23c1.01.05,1.95.33,2.81.85s1.57,1.25,2.1,2.17.8,2.03.8,3.3c0,1.39-.34,2.64-1.02,3.74s-1.69,1.96-3.03,2.58-3,.94-4.98.94h-11.07Zm5.36-15.22h4.36c.77,0,1.46-.13,2.06-.4s1.07-.66,1.41-1.17.51-1.11.51-1.8c0-.97-.34-1.76-1.02-2.36s-1.64-.9-2.88-.9h-4.43v6.63Zm0,10.85h4.73c1.54,0,2.67-.3,3.4-.91s1.1-1.42,1.1-2.43c0-.74-.18-1.39-.53-1.95s-.86-1-1.51-1.32-1.44-.47-2.34-.47h-4.85v7.08Z"/>
        <path class="cls-6" d="m822.11,626.91c-1.35,0-2.53-.29-3.53-.88s-1.79-1.43-2.34-2.54-.83-2.43-.83-3.96v-12.3h5.24v11.37c0,1.23.31,2.19.94,2.87s1.49,1.02,2.59,1.02c.74,0,1.39-.16,1.96-.47s1.01-.78,1.34-1.4.48-1.36.48-2.24v-11.14h5.26v19.41h-5.01l-.07-4.89h.44c-.54,1.64-1.34,2.91-2.4,3.81s-2.42,1.35-4.07,1.35Z"/>
        <path class="cls-6" d="m840.15,604.71c-.81,0-1.5-.26-2.07-.79s-.85-1.17-.85-1.93.28-1.41.85-1.93,1.25-.79,2.05-.79,1.51.26,2.07.79.84,1.17.84,1.93-.28,1.41-.84,1.93-1.25.79-2.06.79Zm-2.62,21.92v-19.41h5.24v19.41h-5.24Z"/>
        <path class="cls-6" d="m852.33,600.44v26.19h-5.24v-26.19h5.24Z"/>
        <path class="cls-6" d="m863.85,626.96c-1.54,0-2.91-.39-4.11-1.18s-2.16-1.92-2.86-3.41-1.05-3.3-1.05-5.43.36-3.99,1.07-5.48,1.68-2.61,2.88-3.38,2.55-1.15,4.03-1.15c1.04,0,1.93.17,2.65.51s1.33.77,1.8,1.29.85,1.06,1.12,1.63h.14v-9.93h5.24v26.19h-5.17v-3.08h-.19c-.27.56-.65,1.1-1.13,1.63s-1.09.95-1.81,1.28-1.59.5-2.61.5Zm1.55-4.22c.9,0,1.67-.24,2.3-.73s1.12-1.16,1.46-2.03.51-1.89.51-3.06-.17-2.19-.5-3.05-.82-1.53-1.46-2-1.41-.71-2.31-.71-1.65.24-2.28.72-1.1,1.15-1.42,2.02-.48,1.88-.48,3.02.16,2.18.48,3.05.8,1.55,1.42,2.04,1.39.73,2.28.73Z"/>
        <path class="cls-6" d="m881.7,604.71c-.81,0-1.5-.26-2.07-.79s-.85-1.17-.85-1.93.28-1.41.85-1.93,1.25-.79,2.05-.79,1.51.26,2.07.79.84,1.17.84,1.93-.28,1.41-.84,1.93-1.25.79-2.06.79Zm-2.62,21.92v-19.41h5.24v19.41h-5.24Z"/>
        <path class="cls-6" d="m893.89,615.48v11.14h-5.24v-19.41h4.99l.07,4.89h-.44c.53-1.64,1.32-2.91,2.38-3.81s2.42-1.35,4.09-1.35c1.35,0,2.53.29,3.53.88s1.79,1.43,2.34,2.53.83,2.43.83,3.97v12.3h-5.24v-11.37c0-1.23-.31-2.19-.93-2.87s-1.49-1.03-2.6-1.03c-.74,0-1.39.16-1.96.48s-1.01.79-1.34,1.4-.48,1.36-.48,2.25Z"/>
        <path class="cls-6" d="m919.5,634.36c-1.66,0-3.11-.22-4.32-.65s-2.2-1.03-2.95-1.8-1.25-1.65-1.51-2.65l4.62-.97c.16.39.42.75.76,1.09s.79.62,1.34.83,1.24.32,2.05.32c1.32,0,2.36-.32,3.11-.95s1.12-1.61,1.12-2.92v-3.45h-.32c-.27.57-.64,1.1-1.11,1.59s-1.06.88-1.78,1.17-1.58.44-2.58.44c-1.5,0-2.85-.36-4.06-1.08s-2.17-1.79-2.87-3.21-1.06-3.17-1.06-5.26.36-3.96,1.08-5.43,1.68-2.6,2.89-3.36,2.55-1.14,4.03-1.14c1.04,0,1.93.17,2.66.51s1.34.77,1.83,1.3.87,1.07,1.15,1.63h.16v-3.16h5.19v19.12c0,1.8-.4,3.3-1.21,4.49s-1.92,2.07-3.33,2.65-3.04.87-4.88.87Zm.02-11.99c.9,0,1.67-.22,2.3-.67s1.12-1.08,1.45-1.91.5-1.82.5-2.98-.17-2.15-.5-3-.82-1.51-1.45-1.98-1.4-.7-2.3-.7-1.67.24-2.29.72-1.1,1.15-1.42,2-.48,1.84-.48,2.96.16,2.14.48,2.97.8,1.47,1.43,1.92,1.39.67,2.29.67Z"/>
        <path class="cls-6" d="m941.68,626.63v-26.19h8.17l4.25,12.06c.18.56.38,1.28.62,2.15s.47,1.81.71,2.8.46,1.96.67,2.89.38,1.74.52,2.42h-1.12c.14-.67.31-1.46.52-2.39s.43-1.89.67-2.89.47-1.94.7-2.82.44-1.6.62-2.16l4.18-12.06h8.19v26.19h-5.38v-12.38c0-.57,0-1.28.03-2.13s.04-1.75.07-2.72.06-1.95.08-2.94.04-1.92.05-2.8h.4c-.23.96-.49,1.95-.76,2.97s-.55,2.01-.83,2.98-.53,1.85-.77,2.65-.45,1.47-.62,2l-4.36,12.38h-4.5l-4.41-12.38c-.19-.53-.4-1.19-.64-1.99s-.5-1.68-.78-2.64-.56-1.95-.84-2.97-.55-2.02-.81-3.01h.49c.01.84.03,1.76.05,2.74l.07,2.95c.02.98.05,1.9.07,2.75s.04,1.57.04,2.15v12.38h-5.34Z"/>
        <path class="cls-6" d="m983.57,627.02c-1.96,0-3.65-.42-5.09-1.26s-2.54-2.01-3.32-3.52-1.17-3.25-1.17-5.25.39-3.78,1.17-5.28,1.89-2.68,3.32-3.52,3.13-1.26,5.09-1.26,3.64.42,5.07,1.26,2.54,2.01,3.32,3.52,1.17,3.27,1.17,5.28-.39,3.74-1.17,5.25-1.89,2.68-3.32,3.52-3.13,1.26-5.07,1.26Zm0-4.15c.91,0,1.68-.25,2.31-.76s1.1-1.2,1.43-2.08.49-1.9.49-3.05-.16-2.18-.49-3.06-.81-1.57-1.43-2.07-1.4-.76-2.31-.76-1.69.25-2.32.76-1.11,1.2-1.43,2.07-.48,1.9-.48,3.06.16,2.17.48,3.05.8,1.58,1.42,2.08,1.4.76,2.33.76Z"/>
        <path class="cls-6" d="m1003.82,626.96c-1.54,0-2.91-.39-4.11-1.18s-2.16-1.92-2.86-3.41-1.05-3.3-1.05-5.43.36-3.99,1.07-5.48,1.68-2.61,2.88-3.38,2.55-1.15,4.03-1.15c1.04,0,1.93.17,2.65.51s1.33.77,1.8,1.29.85,1.06,1.12,1.63h.14v-9.93h5.24v26.19h-5.17v-3.08h-.19c-.27.56-.65,1.1-1.13,1.63s-1.09.95-1.81,1.28-1.59.5-2.61.5Zm1.55-4.22c.9,0,1.67-.24,2.3-.73s1.12-1.16,1.46-2.03.51-1.89.51-3.06-.17-2.19-.5-3.05-.82-1.53-1.46-2-1.41-.71-2.31-.71-1.65.24-2.28.72-1.1,1.15-1.42,2.02-.48,1.88-.48,3.02.16,2.18.48,3.05.8,1.55,1.42,2.04,1.39.73,2.28.73Z"/>
        <path class="cls-6" d="m1027.85,627.02c-1.98,0-3.69-.41-5.12-1.23s-2.54-1.98-3.32-3.48-1.17-3.26-1.17-5.29.39-3.76,1.16-5.26,1.86-2.68,3.27-3.53,3.05-1.27,4.94-1.27c1.3,0,2.51.21,3.62.63s2.09,1.05,2.93,1.87,1.49,1.86,1.95,3.09.69,2.66.69,4.28v1.46h-16.47v-3.3h13.92l-2.44.86c0-1.01-.16-1.88-.47-2.62s-.78-1.31-1.4-1.71-1.37-.61-2.28-.61-1.67.21-2.3.62-1.12.97-1.45,1.69-.5,1.54-.5,2.46v2.32c0,1.09.19,2.02.56,2.78s.91,1.34,1.59,1.73,1.49.59,2.4.59c.62,0,1.19-.09,1.7-.27s.94-.45,1.3-.79.63-.77.82-1.27l4.76.69c-.3,1.12-.85,2.11-1.64,2.94s-1.78,1.49-2.97,1.95-2.55.69-4.07.69Z"/>
        <path class="cls-6" d="m1045.46,600.44v26.19h-5.24v-26.19h5.24Z"/>
        <path class="cls-6" d="m1052.41,604.71c-.81,0-1.5-.26-2.07-.79s-.85-1.17-.85-1.93.28-1.41.85-1.93,1.25-.79,2.05-.79,1.51.26,2.07.79.84,1.17.84,1.93-.28,1.41-.84,1.93-1.25.79-2.06.79Zm-2.62,21.92v-19.41h5.24v19.41h-5.24Z"/>
        <path class="cls-6" d="m1064.59,615.48v11.14h-5.24v-19.41h4.99l.07,4.89h-.44c.53-1.64,1.32-2.91,2.38-3.81s2.42-1.35,4.09-1.35c1.35,0,2.53.29,3.53.88s1.79,1.43,2.34,2.53.83,2.43.83,3.97v12.3h-5.24v-11.37c0-1.23-.31-2.19-.93-2.87s-1.49-1.03-2.6-1.03c-.74,0-1.39.16-1.96.48s-1.01.79-1.34,1.4-.48,1.36-.48,2.25Z"/>
        <path class="cls-6" d="m1090.2,634.36c-1.66,0-3.11-.22-4.32-.65s-2.2-1.03-2.95-1.8-1.25-1.65-1.51-2.65l4.62-.97c.16.39.42.75.76,1.09s.79.62,1.34.83,1.24.32,2.05.32c1.32,0,2.36-.32,3.11-.95s1.12-1.61,1.12-2.92v-3.45h-.32c-.27.57-.64,1.1-1.11,1.59s-1.06.88-1.78,1.17-1.58.44-2.58.44c-1.5,0-2.85-.36-4.06-1.08s-2.17-1.79-2.87-3.21-1.06-3.17-1.06-5.26.36-3.96,1.08-5.43,1.68-2.6,2.89-3.36,2.55-1.14,4.03-1.14c1.04,0,1.93.17,2.66.51s1.34.77,1.83,1.3.87,1.07,1.15,1.63h.16v-3.16h5.19v19.12c0,1.8-.4,3.3-1.21,4.49s-1.92,2.07-3.33,2.65-3.04.87-4.88.87Zm.02-11.99c.9,0,1.67-.22,2.3-.67s1.12-1.08,1.45-1.91.5-1.82.5-2.98-.17-2.15-.5-3-.82-1.51-1.45-1.98-1.4-.7-2.3-.7-1.67.24-2.29.72-1.1,1.15-1.42,2-.48,1.84-.48,2.96.16,2.14.48,2.97.8,1.47,1.43,1.92,1.39.67,2.29.67Z"/>
      </g>
      <g>
        <path class="cls-6" d="m1299.6,626.63v-26.19h17.46v4.5h-12.08v7.12h10.99v4.39h-10.99v10.18h-5.38Z"/>
        <path class="cls-6" d="m1323.21,604.71c-.81,0-1.5-.26-2.07-.79s-.85-1.17-.85-1.93.28-1.41.85-1.93,1.25-.79,2.05-.79,1.51.26,2.07.79.84,1.17.84,1.93-.28,1.41-.84,1.93-1.25.79-2.06.79Zm-2.62,21.92v-19.41h5.24v19.41h-5.24Z"/>
        <path class="cls-6" d="m1335.39,615.48v11.14h-5.24v-19.41h4.99l.07,4.89h-.44c.53-1.64,1.32-2.91,2.38-3.81s2.42-1.35,4.09-1.35c1.35,0,2.53.29,3.53.88s1.79,1.43,2.34,2.53.83,2.43.83,3.97v12.3h-5.24v-11.37c0-1.23-.31-2.19-.93-2.87s-1.49-1.03-2.6-1.03c-.74,0-1.39.16-1.96.48s-1.01.79-1.34,1.4-.48,1.36-.48,2.25Z"/>
        <path class="cls-6" d="m1357.79,627c-1.24,0-2.36-.22-3.34-.65s-1.76-1.08-2.32-1.94-.84-1.93-.84-3.21c0-1.09.2-2,.6-2.72s.94-1.31,1.63-1.76,1.48-.78,2.36-1.01,1.81-.39,2.79-.48c1.14-.12,2.05-.23,2.74-.33s1.2-.25,1.51-.47.47-.53.47-.95v-.09c0-.54-.12-1-.36-1.38s-.59-.67-1.05-.88-1.01-.31-1.67-.31-1.25.1-1.75.31-.9.48-1.21.83-.53.74-.66,1.17l-4.83-.62c.27-1.17.79-2.17,1.55-3.01s1.73-1.47,2.92-1.91,2.53-.66,4.04-.66c1.1,0,2.15.13,3.14.39s1.87.66,2.65,1.2,1.38,1.22,1.82,2.05.66,1.81.66,2.96v13.1h-5.01v-2.71h-.16c-.32.61-.74,1.15-1.26,1.61s-1.15.82-1.87,1.08-1.58.39-2.55.39Zm1.48-3.67c.83,0,1.56-.16,2.18-.49s1.11-.77,1.46-1.32.53-1.17.53-1.86v-2.06c-.15.09-.38.19-.68.28s-.64.18-1.01.25-.75.13-1.13.19-.73.11-1.05.16c-.63.09-1.2.24-1.69.45s-.87.48-1.14.83-.4.78-.4,1.29.13.91.38,1.25.6.6,1.04.77.95.26,1.52.26Z"/>
        <path class="cls-6" d="m1378.18,600.44v26.19h-5.24v-26.19h5.24Z"/>
        <path class="cls-6" d="m1398.57,626.63l-9.18-26.19h5.94l4.2,12.66c.5,1.59,1.02,3.34,1.54,5.25s1.08,3.98,1.66,6.23h-1.25c.57-2.27,1.11-4.36,1.62-6.25s1-3.64,1.48-5.23l4.06-12.66h5.89l-8.96,26.19h-7Z"/>
        <path class="cls-6" d="m1420.01,604.71c-.81,0-1.5-.26-2.07-.79s-.85-1.17-.85-1.93.28-1.41.85-1.93,1.25-.79,2.05-.79,1.51.26,2.07.79.84,1.17.84,1.93-.28,1.41-.84,1.93-1.25.79-2.06.79Zm-2.62,21.92v-19.41h5.24v19.41h-5.24Z"/>
        <path class="cls-6" d="m1434.73,627.03c-1.58,0-2.99-.23-4.21-.69s-2.22-1.13-2.99-2.01-1.25-1.93-1.45-3.16l4.94-.67c.22.89.65,1.56,1.28,2.02s1.48.69,2.53.69c1,0,1.78-.19,2.36-.57s.86-.86.86-1.45c0-.5-.21-.92-.62-1.24s-1.04-.57-1.87-.75l-3.36-.67c-1.88-.39-3.28-1.04-4.22-1.97s-1.41-2.12-1.41-3.59c0-1.23.34-2.3,1.01-3.2s1.62-1.6,2.85-2.09,2.66-.74,4.3-.74,2.93.22,4.08.67,2.07,1.08,2.77,1.9,1.14,1.79,1.33,2.9l-4.69.65c-.16-.69-.53-1.26-1.1-1.7s-1.33-.66-2.28-.66c-.88,0-1.6.18-2.17.55s-.85.85-.85,1.43c0,.49.19.91.58,1.24s1.02.59,1.9.76l3.52.7c1.9.38,3.31,1,4.23,1.86s1.38,2,1.38,3.39c0,1.28-.37,2.39-1.11,3.35s-1.76,1.7-3.07,2.23-2.81.8-4.51.8Z"/>
        <path class="cls-6" d="m1453.5,626.91c-1.35,0-2.53-.29-3.53-.88s-1.79-1.43-2.34-2.54-.83-2.43-.83-3.96v-12.3h5.24v11.37c0,1.23.31,2.19.94,2.87s1.49,1.02,2.59,1.02c.74,0,1.39-.16,1.96-.47s1.01-.78,1.34-1.4.48-1.36.48-2.24v-11.14h5.26v19.41h-5.01l-.07-4.89h.44c-.54,1.64-1.34,2.91-2.4,3.81s-2.42,1.35-4.07,1.35Z"/>
        <path class="cls-6" d="m1474.44,627c-1.24,0-2.36-.22-3.34-.65s-1.76-1.08-2.32-1.94-.84-1.93-.84-3.21c0-1.09.2-2,.6-2.72s.94-1.31,1.63-1.76,1.48-.78,2.36-1.01,1.81-.39,2.79-.48c1.14-.12,2.05-.23,2.74-.33s1.2-.25,1.51-.47.47-.53.47-.95v-.09c0-.54-.12-1-.36-1.38s-.59-.67-1.05-.88-1.01-.31-1.67-.31-1.25.1-1.75.31-.9.48-1.21.83-.53.74-.66,1.17l-4.83-.62c.27-1.17.79-2.17,1.55-3.01s1.73-1.47,2.92-1.91,2.53-.66,4.04-.66c1.1,0,2.15.13,3.14.39s1.87.66,2.65,1.2,1.38,1.22,1.82,2.05.66,1.81.66,2.96v13.1h-5.01v-2.71h-.16c-.32.61-.74,1.15-1.26,1.61s-1.15.82-1.87,1.08-1.58.39-2.55.39Zm1.48-3.67c.83,0,1.56-.16,2.18-.49s1.11-.77,1.46-1.32.53-1.17.53-1.86v-2.06c-.15.09-.38.19-.68.28s-.64.18-1.01.25-.75.13-1.13.19-.73.11-1.05.16c-.63.09-1.2.24-1.69.45s-.87.48-1.14.83-.4.78-.4,1.29.13.91.38,1.25.6.6,1.04.77.95.26,1.52.26Z"/>
        <path class="cls-6" d="m1494.83,600.44v26.19h-5.24v-26.19h5.24Z"/>
        <path class="cls-6" d="m1501.77,604.71c-.81,0-1.5-.26-2.07-.79s-.85-1.17-.85-1.93.28-1.41.85-1.93,1.25-.79,2.05-.79,1.51.26,2.07.79.84,1.17.84,1.93-.28,1.41-.84,1.93-1.25.79-2.06.79Zm-2.62,21.92v-19.41h5.24v19.41h-5.24Z"/>
        <path class="cls-6" d="m1508.55,626.63v-3.25l9.6-11.81v-.12h-9.35v-4.22h15.66v3.53l-9.11,11.53v.12h9.4v4.22h-16.21Z"/>
        <path class="cls-6" d="m1534.45,627c-1.24,0-2.36-.22-3.34-.65s-1.76-1.08-2.32-1.94-.84-1.93-.84-3.21c0-1.09.2-2,.6-2.72s.94-1.31,1.63-1.76,1.48-.78,2.36-1.01,1.81-.39,2.79-.48c1.14-.12,2.05-.23,2.74-.33s1.2-.25,1.51-.47.47-.53.47-.95v-.09c0-.54-.12-1-.36-1.38s-.59-.67-1.05-.88-1.01-.31-1.67-.31-1.25.1-1.75.31-.9.48-1.21.83-.53.74-.66,1.17l-4.83-.62c.27-1.17.79-2.17,1.55-3.01s1.73-1.47,2.92-1.91,2.53-.66,4.04-.66c1.1,0,2.15.13,3.14.39s1.87.66,2.65,1.2,1.38,1.22,1.82,2.05.66,1.81.66,2.96v13.1h-5.01v-2.71h-.16c-.32.61-.74,1.15-1.26,1.61s-1.15.82-1.87,1.08-1.58.39-2.55.39Zm1.48-3.67c.83,0,1.56-.16,2.18-.49s1.11-.77,1.46-1.32.53-1.17.53-1.86v-2.06c-.15.09-.38.19-.68.28s-.64.18-1.01.25-.75.13-1.13.19-.73.11-1.05.16c-.63.09-1.2.24-1.69.45s-.87.48-1.14.83-.4.78-.4,1.29.13.91.38,1.25.6.6,1.04.77.95.26,1.52.26Z"/>
        <path class="cls-6" d="m1559.55,607.22v4.03h-11.78v-4.03h11.78Zm-8.95-4.76h5.24v18.42c0,.62.14,1.08.41,1.36s.74.43,1.38.43c.23,0,.54-.02.91-.06s.65-.08.85-.11l.58,3.99c-.53.13-1.08.22-1.65.27s-1.13.08-1.67.08c-1.99,0-3.5-.46-4.52-1.38s-1.53-2.26-1.53-4.03v-18.97Z"/>
        <path class="cls-6" d="m1565.42,604.71c-.81,0-1.5-.26-2.07-.79s-.85-1.17-.85-1.93.28-1.41.85-1.93,1.25-.79,2.05-.79,1.51.26,2.07.79.84,1.17.84,1.93-.28,1.41-.84,1.93-1.25.79-2.06.79Zm-2.62,21.92v-19.41h5.24v19.41h-5.24Z"/>
        <path class="cls-6" d="m1581.12,627.02c-1.96,0-3.65-.42-5.09-1.26s-2.54-2.01-3.32-3.52-1.17-3.25-1.17-5.25.39-3.78,1.17-5.28,1.89-2.68,3.32-3.52,3.13-1.26,5.09-1.26,3.64.42,5.07,1.26,2.54,2.01,3.32,3.52,1.17,3.27,1.17,5.28-.39,3.74-1.17,5.25-1.89,2.68-3.32,3.52-3.13,1.26-5.07,1.26Zm0-4.15c.91,0,1.68-.25,2.31-.76s1.1-1.2,1.43-2.08.49-1.9.49-3.05-.16-2.18-.49-3.06-.81-1.57-1.43-2.07-1.4-.76-2.31-.76-1.69.25-2.32.76-1.11,1.2-1.43,2.07-.48,1.9-.48,3.06.16,2.17.48,3.05.8,1.58,1.42,2.08,1.4.76,2.33.76Z"/>
        <path class="cls-6" d="m1599.42,615.48v11.14h-5.24v-19.41h4.99l.07,4.89h-.44c.53-1.64,1.32-2.91,2.38-3.81s2.42-1.35,4.09-1.35c1.35,0,2.53.29,3.53.88s1.79,1.43,2.34,2.53.83,2.43.83,3.97v12.3h-5.24v-11.37c0-1.23-.31-2.19-.93-2.87s-1.49-1.03-2.6-1.03c-.74,0-1.39.16-1.96.48s-1.01.79-1.34,1.4-.48,1.36-.48,2.25Z"/>
      </g>
      <g>
        <path class="cls-8" d="m383.72,348.15c-2.2,0-4.09-.54-5.65-1.61s-2.77-2.61-3.6-4.61-1.26-4.41-1.26-7.23.42-5.24,1.26-7.25,2.04-3.55,3.6-4.62,3.45-1.61,5.65-1.61,4.09.54,5.66,1.62,2.77,2.62,3.6,4.62,1.25,4.42,1.25,7.24-.42,5.24-1.25,7.24-2.03,3.54-3.59,4.61-3.45,1.6-5.67,1.6Zm0-4.43c1.09,0,2.02-.35,2.78-1.06s1.34-1.73,1.74-3.08.6-2.97.6-4.88-.2-3.56-.6-4.9-.98-2.38-1.74-3.09-1.69-1.07-2.78-1.07-2.02.36-2.78,1.07-1.34,1.75-1.75,3.09-.61,2.98-.61,4.9.2,3.54.6,4.88.98,2.37,1.75,3.08,1.7,1.06,2.79,1.06Z"/>
        <path class="cls-8" d="m397.76,347.79v-3.88l9.35-8.6c.79-.76,1.46-1.45,2.02-2.07s1-1.23,1.3-1.85.46-1.29.46-2.01c0-.8-.18-1.48-.53-2.06s-.83-1.02-1.45-1.33-1.33-.47-2.14-.47-1.56.17-2.18.52-1.1.84-1.44,1.49-.51,1.41-.51,2.3h-5.1c0-1.75.39-3.26,1.17-4.55s1.86-2.29,3.25-3,3-1.06,4.84-1.06,3.45.33,4.83.99,2.46,1.58,3.23,2.76,1.16,2.53,1.16,4.07c0,1.03-.2,2.03-.6,2.99s-1.07,2-2.02,3.13-2.26,2.44-3.92,3.96l-4.32,4.11v.16h11.16v4.39h-18.58Z"/>
      </g>
      <g>
        <path class="cls-8" d="m646.15,348.15c-2.2,0-4.09-.54-5.65-1.61s-2.77-2.61-3.6-4.61-1.26-4.41-1.26-7.23.42-5.24,1.26-7.25,2.04-3.55,3.6-4.62,3.45-1.61,5.65-1.61,4.09.54,5.66,1.62,2.77,2.62,3.6,4.62,1.25,4.42,1.25,7.24-.42,5.24-1.25,7.24-2.03,3.54-3.59,4.61-3.45,1.6-5.67,1.6Zm0-4.43c1.09,0,2.02-.35,2.78-1.06s1.34-1.73,1.74-3.08.6-2.97.6-4.88-.2-3.56-.6-4.9-.98-2.38-1.74-3.09-1.69-1.07-2.78-1.07-2.02.36-2.78,1.07-1.34,1.75-1.75,3.09-.61,2.98-.61,4.9.2,3.54.6,4.88.98,2.37,1.75,3.08,1.7,1.06,2.79,1.06Z"/>
        <path class="cls-8" d="m669.71,348.15c-1.97,0-3.69-.35-5.16-1.04s-2.62-1.64-3.45-2.84-1.26-2.58-1.28-4.12h5.36c.02.73.23,1.36.62,1.91s.93.96,1.6,1.26,1.44.44,2.31.44,1.64-.15,2.31-.46,1.2-.73,1.58-1.28.57-1.19.57-1.92-.2-1.37-.61-1.92-.98-.98-1.71-1.29-1.62-.47-2.64-.47h-2.39v-3.99h2.39c.88,0,1.65-.15,2.3-.44s1.17-.7,1.54-1.22.55-1.13.55-1.84-.16-1.29-.48-1.81-.77-.92-1.35-1.21-1.26-.44-2.05-.44-1.49.14-2.13.43-1.14.69-1.52,1.21-.58,1.15-.59,1.87h-5.15c.02-1.52.44-2.87,1.26-4.03s1.93-2.08,3.34-2.74,3.02-.99,4.83-.99,3.37.33,4.72.98,2.41,1.53,3.16,2.64,1.13,2.35,1.13,3.74c0,1.46-.46,2.69-1.37,3.67s-2.1,1.62-3.55,1.92v.16c1.25.16,2.32.52,3.19,1.08s1.53,1.27,1.98,2.13.67,1.83.67,2.91c0,1.49-.43,2.82-1.28,3.98s-2.03,2.08-3.53,2.74-3.22.99-5.17.99Z"/>
      </g>
      <g>
        <path class="cls-8" d="m908.32,348.15c-2.2,0-4.09-.54-5.65-1.61s-2.77-2.61-3.6-4.61-1.26-4.41-1.26-7.23.42-5.24,1.26-7.25,2.04-3.55,3.6-4.62,3.45-1.61,5.65-1.61,4.09.54,5.66,1.62,2.77,2.62,3.6,4.62,1.25,4.42,1.25,7.24-.42,5.24-1.25,7.24-2.03,3.54-3.59,4.61-3.45,1.6-5.67,1.6Zm0-4.43c1.09,0,2.02-.35,2.78-1.06s1.34-1.73,1.74-3.08.6-2.97.6-4.88-.2-3.56-.6-4.9-.98-2.38-1.74-3.09-1.69-1.07-2.78-1.07-2.02.36-2.78,1.07-1.34,1.75-1.75,3.09-.61,2.98-.61,4.9.2,3.54.6,4.88.98,2.37,1.75,3.08,1.7,1.06,2.79,1.06Z"/>
        <path class="cls-8" d="m921.96,342.92v-4.22l11.09-17.1h3.57v5.75h-2.09l-7.19,11.09v.18h15.71v4.31h-21.09Zm12.66,4.87v-6.15l.09-1.9v-18.14h5.06v26.19h-5.15Z"/>
      </g>
      <g>
        <path class="cls-8" d="m1172.04,348.15c-2.2,0-4.09-.54-5.65-1.61s-2.77-2.61-3.6-4.61-1.26-4.41-1.26-7.23.42-5.24,1.26-7.25,2.04-3.55,3.6-4.62,3.45-1.61,5.65-1.61,4.09.54,5.66,1.62,2.77,2.62,3.6,4.62,1.25,4.42,1.25,7.24-.42,5.24-1.25,7.24-2.03,3.54-3.59,4.61-3.45,1.6-5.67,1.6Zm0-4.43c1.09,0,2.02-.35,2.78-1.06s1.34-1.73,1.74-3.08.6-2.97.6-4.88-.2-3.56-.6-4.9-.98-2.38-1.74-3.09-1.69-1.07-2.78-1.07-2.02.36-2.78,1.07-1.34,1.75-1.75,3.09-.61,2.98-.61,4.9.2,3.54.6,4.88.98,2.37,1.75,3.08,1.7,1.06,2.79,1.06Z"/>
        <path class="cls-8" d="m1195.07,348.14c-1.8,0-3.41-.33-4.83-1s-2.53-1.59-3.35-2.78-1.25-2.54-1.3-4.08h5.2c.04.7.25,1.33.63,1.88s.9.98,1.54,1.28,1.34.46,2.12.46c.88,0,1.66-.2,2.33-.6s1.2-.95,1.59-1.66.58-1.53.58-2.45-.2-1.77-.59-2.5-.93-1.29-1.61-1.7-1.46-.61-2.36-.61-1.67.18-2.42.53-1.3.83-1.68,1.42l-4.85-.65,1.16-14.1h16.07v4.41h-11.55l-.63,6.54h.12c.52-.66,1.23-1.18,2.15-1.57s1.94-.59,3.05-.59c1.18,0,2.28.21,3.29.64s1.89,1.03,2.64,1.8,1.34,1.69,1.76,2.75.63,2.22.63,3.47c0,1.77-.41,3.34-1.22,4.7s-1.95,2.44-3.4,3.22-3.15,1.17-5.08,1.17Z"/>
      </g>
      <g>
        <path class="cls-8" d="m1434.33,348.15c-2.2,0-4.09-.54-5.65-1.61s-2.77-2.61-3.6-4.61-1.26-4.41-1.26-7.23.42-5.24,1.26-7.25,2.04-3.55,3.6-4.62,3.45-1.61,5.65-1.61,4.09.54,5.66,1.62,2.77,2.62,3.6,4.62,1.25,4.42,1.25,7.24-.42,5.24-1.25,7.24-2.03,3.54-3.59,4.61-3.45,1.6-5.67,1.6Zm0-4.43c1.09,0,2.02-.35,2.78-1.06s1.34-1.73,1.74-3.08.6-2.97.6-4.88-.2-3.56-.6-4.9-.98-2.38-1.74-3.09-1.69-1.07-2.78-1.07-2.02.36-2.78,1.07-1.34,1.75-1.75,3.09-.61,2.98-.61,4.9.2,3.54.6,4.88.98,2.37,1.75,3.08,1.7,1.06,2.79,1.06Z"/>
        <path class="cls-8" d="m1458.25,348.15c-1.39,0-2.72-.24-3.96-.71s-2.35-1.22-3.3-2.23-1.71-2.33-2.26-3.96-.83-3.6-.83-5.92c0-2.19.24-4.16.73-5.9s1.19-3.22,2.1-4.44,2.02-2.15,3.33-2.79,2.77-.97,4.4-.97c1.72,0,3.25.33,4.57,1s2.39,1.57,3.2,2.72,1.29,2.44,1.46,3.89h-5.22c-.21-.96-.67-1.71-1.37-2.26s-1.59-.82-2.65-.82c-1.17,0-2.15.34-2.94,1.01s-1.39,1.63-1.79,2.88-.61,2.72-.61,4.42h.14c.41-.74.94-1.37,1.6-1.9s1.4-.93,2.24-1.21,1.73-.42,2.66-.42c1.58,0,2.99.37,4.23,1.1s2.21,1.74,2.93,3.02,1.07,2.75,1.07,4.4c0,1.77-.41,3.34-1.23,4.7s-1.96,2.44-3.41,3.22-3.15,1.17-5.08,1.17Zm-.04-4.25c.87,0,1.64-.21,2.33-.62s1.23-.98,1.63-1.7.6-1.52.6-2.41-.19-1.67-.58-2.37-.92-1.26-1.6-1.67-1.45-.62-2.32-.62c-.66,0-1.26.12-1.81.36s-1.03.57-1.45,1-.74.93-.97,1.49-.34,1.17-.34,1.82c0,.87.2,1.66.59,2.37s.93,1.28,1.62,1.71,1.46.63,2.31.63Z"/>
      </g>
    </g>
  </g>
</svg>